<?xml version="1.0" encoding="utf-8"?>
<!-- Generator: Adobe Illustrator 25.0.0, SVG Export Plug-In . SVG Version: 6.00 Build 0)  -->
<svg version="1.1" id="Capa_1" xmlns="http://www.w3.org/2000/svg" xmlns:xlink="http://www.w3.org/1999/xlink" x="0px" y="0px"
	 viewBox="0 0 221 85.9" style="enable-background:new 0 0 221 85.9;" xml:space="preserve">
<style type="text/css">
	.st0{fill:#828281;}
	.st1{fill:#00ADC1;}
</style>
<g>
	<g>
		<path class="st0" d="M72,32.7v3.3c-0.6,0.1-1.2,0.2-1.7,0.2c-1.3,0-2.3-0.3-3-0.9c-0.7-0.6-1-1.5-1-2.7c0-1.2,0.3-2.1,1-2.7
			c0.7-0.6,1.7-0.9,3-0.9c0.6,0,1.1,0.1,1.6,0.2v1.3c-0.5-0.1-1-0.2-1.4-0.2c-0.6,0-1.1,0.1-1.4,0.2c-0.4,0.2-0.6,0.4-0.8,0.8
			c-0.2,0.3-0.3,0.8-0.3,1.4c0,0.8,0.2,1.4,0.6,1.7c0.4,0.4,0.9,0.5,1.7,0.5c0.1,0,0.2,0,0.4,0v-2.2H72z"/>
		<path class="st0" d="M74.5,35.8c-0.5-0.3-0.9-0.7-1.1-1.2c-0.3-0.5-0.4-1.2-0.4-2c0-0.8,0.1-1.5,0.4-2c0.3-0.5,0.7-0.9,1.1-1.2
			c0.5-0.3,1.1-0.4,1.8-0.4c0.7,0,1.3,0.1,1.8,0.4c0.5,0.3,0.9,0.7,1.1,1.2c0.3,0.5,0.4,1.2,0.4,2c0,0.8-0.1,1.5-0.4,2
			c-0.3,0.5-0.7,0.9-1.1,1.2c-0.5,0.3-1.1,0.4-1.8,0.4C75.6,36.2,75,36.1,74.5,35.8 M77.6,34.4c0.3-0.4,0.4-1,0.4-1.8
			c0-0.8-0.1-1.4-0.4-1.8c-0.3-0.4-0.7-0.6-1.3-0.6c-0.6,0-1,0.2-1.3,0.6c-0.3,0.4-0.4,1-0.4,1.8c0,0.8,0.1,1.4,0.4,1.8
			c0.3,0.4,0.7,0.6,1.3,0.6C76.8,35,77.3,34.8,77.6,34.4"/>
		<path class="st0" d="M85.7,33.1c0.2,0.3,0.3,0.6,0.3,1.1c0,0.4-0.1,0.8-0.3,1.1c-0.2,0.3-0.6,0.5-1.1,0.7c-0.5,0.2-1.2,0.2-2,0.2
			c-0.3,0-0.6,0-1,0c-0.4,0-0.7-0.1-1-0.1v-6.8c0.3-0.1,0.7-0.1,1.1-0.2c0.4,0,0.8-0.1,1.2-0.1c1,0,1.8,0.2,2.3,0.5
			c0.5,0.3,0.7,0.8,0.7,1.5c0,0.4-0.1,0.7-0.3,1c-0.2,0.3-0.5,0.5-0.8,0.6C85.2,32.6,85.5,32.8,85.7,33.1 M82.1,30.3V32h1
			c0.5,0,0.8-0.1,1-0.2c0.2-0.1,0.3-0.4,0.3-0.7c0-0.2,0-0.4-0.1-0.5c-0.1-0.1-0.2-0.2-0.4-0.3c-0.2-0.1-0.5-0.1-0.8-0.1
			C82.7,30.2,82.4,30.2,82.1,30.3 M84,35c0.2-0.1,0.4-0.2,0.5-0.3c0.1-0.1,0.2-0.3,0.2-0.6c0-0.3-0.1-0.6-0.3-0.7
			c-0.2-0.2-0.6-0.2-1-0.2h-1.1v1.9c0.2,0,0.5,0,0.9,0C83.4,35.1,83.7,35.1,84,35"/>
		<rect x="86.9" y="29.1" class="st0" width="1.5" height="7"/>
		<polygon class="st0" points="91.3,34.9 94.7,34.9 94.7,36.1 89.7,36.1 89.7,29.1 94.7,29.1 94.7,30.4 91.3,30.4 91.3,31.9 
			94.2,31.9 94.2,33.2 91.3,33.2 		"/>
		<path class="st0" d="M99.8,36.1L98,33.6h-0.1c-0.2,0-0.5,0-0.7,0v2.6h-1.5v-6.8c0.3-0.1,0.7-0.1,1.1-0.2c0.4,0,0.8-0.1,1.1-0.1
			c1,0,1.8,0.2,2.3,0.6c0.5,0.4,0.8,0.9,0.8,1.7c0,0.5-0.1,0.9-0.4,1.3c-0.2,0.3-0.6,0.6-1,0.8l2,2.8H99.8z M97.2,32.4
			c0.3,0,0.5,0,0.8,0c0.5,0,0.9-0.1,1.1-0.3c0.2-0.2,0.4-0.5,0.4-0.9c0-0.4-0.1-0.7-0.3-0.8c-0.2-0.2-0.6-0.3-1.1-0.3
			c-0.3,0-0.6,0-0.8,0.1V32.4z"/>
		<polygon class="st0" points="106.8,29.1 108.3,29.1 108.3,36.1 106.7,36.1 103.7,31.5 103.7,36.1 102.2,36.1 102.2,29.1 
			103.8,29.1 106.8,33.8 		"/>
		<path class="st0" d="M110.8,35.8c-0.5-0.3-0.9-0.7-1.1-1.2c-0.3-0.5-0.4-1.2-0.4-2c0-0.8,0.1-1.5,0.4-2c0.3-0.5,0.7-0.9,1.1-1.2
			c0.5-0.3,1.1-0.4,1.8-0.4c0.7,0,1.3,0.1,1.8,0.4c0.5,0.3,0.9,0.7,1.1,1.2c0.3,0.5,0.4,1.2,0.4,2c0,0.8-0.1,1.5-0.4,2
			c-0.3,0.5-0.7,0.9-1.1,1.2c-0.5,0.3-1.1,0.4-1.8,0.4C111.9,36.2,111.3,36.1,110.8,35.8 M113.9,34.4c0.3-0.4,0.4-1,0.4-1.8
			c0-0.8-0.1-1.4-0.4-1.8c-0.3-0.4-0.7-0.6-1.3-0.6c-0.6,0-1,0.2-1.3,0.6c-0.3,0.4-0.4,1-0.4,1.8c0,0.8,0.1,1.4,0.4,1.8
			c0.3,0.4,0.7,0.6,1.3,0.6C113.2,35,113.6,34.8,113.9,34.4"/>
		<path class="st0" d="M119.3,36.1v-6.8c0.3-0.1,0.7-0.1,1.1-0.2c0.4,0,0.8-0.1,1.1-0.1c1.3,0,2.3,0.3,2.9,0.9c0.6,0.6,1,1.5,1,2.7
			c0,0.8-0.2,1.5-0.5,2c-0.3,0.5-0.8,0.9-1.4,1.2c-0.6,0.2-1.4,0.4-2.3,0.4C120.6,36.2,119.9,36.2,119.3,36.1 M122.9,34.7
			c0.3-0.2,0.6-0.4,0.7-0.7c0.2-0.3,0.2-0.8,0.2-1.3c0-0.6-0.1-1-0.2-1.3c-0.2-0.3-0.4-0.6-0.7-0.7c-0.3-0.2-0.7-0.2-1.2-0.2
			c-0.2,0-0.5,0-0.8,0.1v4.5c0.2,0,0.5,0,0.8,0C122.1,35,122.6,34.9,122.9,34.7"/>
		<polygon class="st0" points="128,34.9 131.4,34.9 131.4,36.1 126.4,36.1 126.4,29.1 131.4,29.1 131.4,30.4 128,30.4 128,31.9 
			130.9,31.9 130.9,33.2 128,33.2 		"/>
		<polygon class="st0" points="134.8,36.1 134.8,29.1 136.3,29.1 136.3,34.9 139.5,34.9 139.5,36.1 		"/>
		<path class="st0" d="M144.9,36.1l-0.6-1.9h-2.6l-0.6,1.9h-1.5l2.3-7h2.3l2.3,7H144.9z M142.1,33h1.8l-0.9-3L142.1,33z"/>
		<path class="st0" d="M149.5,29.3c0.7-0.1,1.4-0.2,2.1-0.2c1.1,0,1.8,0.2,2.4,0.6c0.5,0.4,0.8,1,0.8,1.9c0,0.8-0.3,1.5-0.8,1.9
			c-0.5,0.4-1.3,0.6-2.3,0.6c-0.1,0-0.4,0-0.7,0v2h-1.5V29.3z M152.9,32.6c0.2-0.2,0.4-0.6,0.4-1c0-0.5-0.1-0.8-0.4-1.1
			c-0.2-0.2-0.6-0.3-1.1-0.3c-0.3,0-0.5,0-0.7,0.1v2.6c0.2,0,0.5,0,0.7,0C152.3,33,152.7,32.9,152.9,32.6"/>
		<path class="st0" d="M159.9,36.1l-1.8-2.6H158c-0.2,0-0.5,0-0.7,0v2.6h-1.5v-6.8c0.3-0.1,0.7-0.1,1.1-0.2c0.4,0,0.8-0.1,1.1-0.1
			c1,0,1.8,0.2,2.3,0.6c0.5,0.4,0.8,0.9,0.8,1.7c0,0.5-0.1,0.9-0.4,1.3c-0.2,0.3-0.6,0.6-1,0.8l2,2.8H159.9z M157.3,32.4
			c0.3,0,0.5,0,0.8,0c0.5,0,0.9-0.1,1.1-0.3c0.2-0.2,0.4-0.5,0.4-0.9c0-0.4-0.1-0.7-0.3-0.8c-0.2-0.2-0.6-0.3-1.1-0.3
			c-0.3,0-0.6,0-0.8,0.1V32.4z"/>
		<path class="st0" d="M163.3,35.8c-0.5-0.3-0.9-0.7-1.1-1.2c-0.3-0.5-0.4-1.2-0.4-2c0-0.8,0.1-1.5,0.4-2c0.3-0.5,0.7-0.9,1.1-1.2
			c0.5-0.3,1.1-0.4,1.8-0.4c0.7,0,1.3,0.1,1.8,0.4c0.5,0.3,0.9,0.7,1.1,1.2c0.3,0.5,0.4,1.2,0.4,2c0,0.8-0.1,1.5-0.4,2
			c-0.3,0.5-0.7,0.9-1.1,1.2c-0.5,0.3-1.1,0.4-1.8,0.4C164.4,36.2,163.8,36.1,163.3,35.8 M166.3,34.4c0.3-0.4,0.4-1,0.4-1.8
			c0-0.8-0.1-1.4-0.4-1.8c-0.3-0.4-0.7-0.6-1.3-0.6c-0.6,0-1,0.2-1.3,0.6c-0.3,0.4-0.4,1-0.4,1.8c0,0.8,0.1,1.4,0.4,1.8
			c0.3,0.4,0.7,0.6,1.3,0.6C165.6,35,166,34.8,166.3,34.4"/>
		<polygon class="st0" points="173.8,29.1 175.3,29.1 173.1,36.1 170.8,36.1 168.5,29.1 170.2,29.1 172,35 		"/>
		<rect x="176" y="29.1" class="st0" width="1.5" height="7"/>
		<polygon class="st0" points="183.4,29.1 184.8,29.1 184.8,36.1 183.3,36.1 180.2,31.5 180.2,36.1 178.8,36.1 178.8,29.1 
			180.3,29.1 183.4,33.8 		"/>
		<path class="st0" d="M186.8,35.4c-0.6-0.6-0.9-1.5-0.9-2.7c0-1.2,0.3-2.1,1-2.7c0.6-0.6,1.6-0.9,2.8-0.9c0.5,0,1,0.1,1.5,0.2v1.3
			c-0.5-0.1-0.9-0.2-1.4-0.2c-0.5,0-0.9,0.1-1.3,0.2c-0.3,0.2-0.6,0.4-0.7,0.7c-0.2,0.3-0.2,0.8-0.2,1.3c0,0.6,0.1,1,0.2,1.4
			c0.2,0.3,0.4,0.6,0.7,0.7c0.3,0.2,0.7,0.2,1.2,0.2c0.4,0,0.9-0.1,1.4-0.2V36c-0.2,0.1-0.5,0.1-0.8,0.2c-0.3,0-0.5,0.1-0.8,0.1
			C188.3,36.2,187.4,35.9,186.8,35.4"/>
		<rect x="191.9" y="29.1" class="st0" width="1.5" height="7"/>
		<path class="st0" d="M199.5,36.1l-0.6-1.9h-2.6l-0.6,1.9h-1.5l2.3-7h2.3l2.3,7H199.5z M196.6,33h1.8l-0.9-3L196.6,33z"/>
		<path class="st0" d="M204.1,36.1v-6.8c0.3-0.1,0.7-0.1,1.1-0.2c0.4,0,0.8-0.1,1.1-0.1c1.3,0,2.3,0.3,2.9,0.9c0.6,0.6,1,1.5,1,2.7
			c0,0.8-0.2,1.5-0.5,2c-0.3,0.5-0.8,0.9-1.4,1.2c-0.6,0.2-1.4,0.4-2.3,0.4C205.3,36.2,204.7,36.2,204.1,36.1 M207.6,34.7
			c0.3-0.2,0.6-0.4,0.7-0.7c0.2-0.3,0.2-0.8,0.2-1.3c0-0.6-0.1-1-0.2-1.3c-0.2-0.3-0.4-0.6-0.7-0.7c-0.3-0.2-0.7-0.2-1.2-0.2
			c-0.2,0-0.5,0-0.8,0.1v4.5c0.2,0,0.5,0,0.8,0C206.9,35,207.3,34.9,207.6,34.7"/>
		<polygon class="st0" points="212.7,34.9 216.1,34.9 216.1,36.1 211.2,36.1 211.2,29.1 216.1,29.1 216.1,30.4 212.7,30.4 
			212.7,31.9 215.6,31.9 215.6,33.2 212.7,33.2 		"/>
		<path class="st1" d="M77.7,48.5c0.5,0.6,0.8,1.4,0.8,2.4c0,1-0.3,1.8-0.8,2.5c-0.5,0.7-1.3,1.2-2.4,1.5c-1.1,0.3-2.6,0.5-4.4,0.5
			c-0.7,0-1.4,0-2.2-0.1c-0.8-0.1-1.5-0.1-2.2-0.2V40.3c0.7-0.2,1.5-0.3,2.4-0.4c0.9-0.1,1.7-0.1,2.5-0.1c2.3,0,3.9,0.4,5,1.1
			c1,0.7,1.6,1.8,1.6,3.2c0,0.8-0.2,1.5-0.6,2.1c-0.4,0.6-1,1-1.8,1.2C76.5,47.5,77.2,47.9,77.7,48.5 M69.8,42.4v3.8H72
			c1,0,1.7-0.2,2.2-0.5c0.4-0.3,0.6-0.8,0.6-1.5c0-0.5-0.1-0.8-0.3-1.1c-0.2-0.3-0.5-0.5-0.9-0.6c-0.4-0.1-1-0.2-1.7-0.2
			C71.2,42.2,70.5,42.3,69.8,42.4 M73.9,52.7c0.5-0.2,0.9-0.4,1.1-0.7c0.2-0.3,0.3-0.7,0.3-1.2c0-0.7-0.2-1.3-0.7-1.6
			c-0.5-0.3-1.2-0.5-2.3-0.5h-2.5v4.2c0.5,0.1,1.2,0.1,1.9,0.1C72.6,53,73.3,52.9,73.9,52.7"/>
		<path class="st1" d="M81.9,53.8c-1-1.1-1.6-2.7-1.6-4.9v-9h3.4v9.3c0,1.2,0.3,2.1,0.8,2.6c0.5,0.6,1.3,0.8,2.3,0.8
			c1.1,0,1.8-0.3,2.3-0.8c0.5-0.6,0.8-1.4,0.8-2.6v-9.3h3.3v9c0,2.2-0.5,3.9-1.6,4.9c-1,1.1-2.7,1.6-4.9,1.6
			C84.5,55.4,82.9,54.9,81.9,53.8"/>
		<polygon class="st1" points="99.2,52.6 106.8,52.6 106.8,55.2 95.9,55.2 95.9,39.9 106.7,39.9 106.7,42.6 99.2,42.6 99.2,46.1 
			105.6,46.1 105.6,48.8 99.2,48.8 		"/>
		<polygon class="st1" points="119,39.9 122.2,39.9 122.2,55.2 118.8,55.2 112.1,45 112.1,55.2 108.9,55.2 108.9,39.9 112.3,39.9 
			119,50.2 		"/>
		<path class="st1" d="M127.8,54.6c-1.1-0.6-1.9-1.5-2.5-2.6c-0.6-1.2-0.9-2.6-0.9-4.4c0-1.7,0.3-3.2,0.9-4.4c0.6-1.2,1.4-2,2.5-2.6
			c1.1-0.6,2.4-0.9,3.9-0.9c1.5,0,2.8,0.3,3.9,0.9c1.1,0.6,1.9,1.5,2.5,2.6c0.6,1.2,0.9,2.6,0.9,4.4s-0.3,3.2-0.9,4.4
			c-0.6,1.2-1.4,2-2.5,2.6c-1.1,0.6-2.4,0.9-3.8,0.9C130.2,55.4,128.9,55.2,127.8,54.6 M134.5,51.5c0.6-0.8,1-2.1,1-3.9
			c0-1.8-0.3-3.1-1-4c-0.6-0.8-1.6-1.2-2.8-1.2c-1.2,0-2.2,0.4-2.8,1.2c-0.6,0.8-1,2.1-1,3.9c0,1.8,0.3,3.2,1,4
			c0.6,0.8,1.6,1.2,2.8,1.2C132.9,52.7,133.8,52.3,134.5,51.5"/>
		<path class="st1" d="M142.7,55.3c-0.7-0.1-1.4-0.3-2.1-0.5v-2.7c0.6,0.2,1.4,0.4,2.1,0.5c0.8,0.1,1.5,0.2,2.2,0.2
			c1,0,1.7-0.2,2.1-0.5c0.4-0.3,0.7-0.7,0.7-1.3c0-0.3-0.1-0.6-0.2-0.8c-0.1-0.2-0.4-0.4-0.7-0.6c-0.3-0.2-0.8-0.3-1.3-0.5l-1.2-0.3
			c-1.4-0.3-2.4-0.9-3.1-1.6c-0.7-0.7-1-1.7-1-2.8c0-1.5,0.5-2.6,1.6-3.4c1.1-0.8,2.7-1.2,4.8-1.2c0.7,0,1.3,0,1.9,0.1
			c0.6,0.1,1.2,0.2,1.7,0.3v2.7c-0.5-0.2-1-0.3-1.6-0.4c-0.6-0.1-1.2-0.1-1.8-0.1c-1.1,0-2,0.2-2.5,0.5c-0.5,0.3-0.7,0.7-0.7,1.3
			c0,0.3,0.1,0.6,0.2,0.8c0.1,0.2,0.3,0.4,0.6,0.5c0.3,0.2,0.7,0.3,1.2,0.4l1.2,0.3c1.5,0.4,2.6,0.9,3.3,1.6
			c0.7,0.7,1.1,1.7,1.1,2.8c0,1-0.2,1.8-0.7,2.5c-0.5,0.7-1.2,1.3-2.1,1.6c-0.9,0.4-2,0.6-3.3,0.6C144.2,55.4,143.5,55.4,142.7,55.3
			"/>
		<path class="st1" d="M168.6,55.2l-1.3-4.1h-5.7l-1.3,4.1h-3.3l5-15.3h4.9l5,15.3H168.6z M162.5,48.5h4l-2-6.5L162.5,48.5z"/>
		<rect x="173.5" y="39.9" class="st1" width="3.4" height="15.3"/>
		<path class="st1" d="M188.7,55.2l-3.9-5.6h-0.2c-0.5,0-1,0-1.6-0.1v5.7h-3.3v-15c0.7-0.2,1.5-0.3,2.3-0.4c0.8-0.1,1.7-0.1,2.5-0.1
			c2.2,0,3.9,0.4,5,1.2c1.1,0.8,1.7,2,1.7,3.7c0,1.1-0.3,2-0.8,2.8c-0.5,0.7-1.3,1.3-2.3,1.7l4.4,6.2H188.7z M182.9,47
			c0.6,0.1,1.1,0.1,1.7,0.1c1.1,0,1.9-0.2,2.5-0.6c0.5-0.4,0.8-1,0.8-1.9c0-0.8-0.3-1.5-0.8-1.9c-0.5-0.4-1.3-0.6-2.4-0.6
			c-0.6,0-1.2,0.1-1.8,0.2V47z"/>
		<polygon class="st1" points="197.3,52.6 204.8,52.6 204.8,55.2 193.9,55.2 193.9,39.9 204.7,39.9 204.7,42.6 197.3,42.6 
			197.3,46.1 203.7,46.1 203.7,48.8 197.3,48.8 		"/>
		<path class="st1" d="M208.5,55.3c-0.7-0.1-1.4-0.3-2.1-0.5v-2.7c0.6,0.2,1.4,0.4,2.1,0.5c0.8,0.1,1.5,0.2,2.2,0.2
			c1,0,1.7-0.2,2.1-0.5c0.4-0.3,0.7-0.7,0.7-1.3c0-0.3-0.1-0.6-0.2-0.8c-0.1-0.2-0.4-0.4-0.7-0.6c-0.3-0.2-0.8-0.3-1.3-0.5l-1.2-0.3
			c-1.4-0.3-2.4-0.9-3.1-1.6c-0.7-0.7-1-1.7-1-2.8c0-1.5,0.5-2.6,1.6-3.4c1.1-0.8,2.7-1.2,4.8-1.2c0.7,0,1.3,0,1.9,0.1
			c0.6,0.1,1.2,0.2,1.7,0.3v2.7c-0.5-0.2-1-0.3-1.6-0.4c-0.6-0.1-1.2-0.1-1.8-0.1c-1.1,0-2,0.2-2.5,0.5c-0.5,0.3-0.7,0.7-0.7,1.3
			c0,0.3,0.1,0.6,0.2,0.8c0.1,0.2,0.3,0.4,0.6,0.5c0.3,0.2,0.7,0.3,1.2,0.4l1.2,0.3c1.5,0.4,2.6,0.9,3.3,1.6
			c0.7,0.7,1.1,1.7,1.1,2.8c0,1-0.2,1.8-0.7,2.5c-0.5,0.7-1.2,1.3-2.1,1.6c-0.9,0.4-2,0.6-3.3,0.6C210,55.4,209.3,55.4,208.5,55.3"
			/>
	</g>
	<g>
		<g>
			<rect x="16.7" y="15" class="st1" width="0.7" height="2.7"/>
			<rect x="18.4" y="15" class="st1" width="0.7" height="2.7"/>
			<path class="st1" d="M18.6,13.8h-3c-0.2,0-0.4,0.2-0.4,0.4v0.5h-1.5c-0.5,0-0.9,0.4-0.9,0.9l-0.1,1.6l-0.3,0.3
				c-0.2,0.2-0.3,0.6-0.3,0.7V20c0,0.2,0.2,0.4,0.4,0.4h0.3c0.2,0.5,0.6,0.9,1.2,0.9c0.7,0,1.2-0.6,1.2-1.2c0-0.7-0.6-1.2-1.2-1.2
				c-0.5,0-0.9,0.3-1.1,0.7v-0.5H13c0.2,0,0.4-0.2,0.4-0.4c0-0.2-0.2-0.4-0.4-0.4h-0.1c0,0,0-0.1,0-0.1l0.3-0.3h2V20
				c0,0.2,0.2,0.4,0.4,0.4H16c0.4-0.3,0.7-0.5,1.1-0.7c0,0,0,0,0,0H16v-0.7h2.9c0.8-0.3,1.7-0.6,2.7-0.7H16v-3.7h3.8
				C19.3,14.2,19,14,18.6,13.8z M13.9,19.4c0.3,0,0.5,0.2,0.5,0.5s-0.2,0.5-0.5,0.5c-0.3,0-0.5-0.2-0.5-0.5S13.6,19.4,13.9,19.4z
				 M15.2,17l-1.8,0l0.1-1.4l0,0c0-0.1,0.1-0.2,0.2-0.2h1.5V17z"/>
			<path class="st1" d="M20.5,15l-0.4,0l0,2.7l0.7,0l0-2.5C20.6,15.1,20.6,15.1,20.5,15z"/>
			<path class="st1" d="M21.7,15.9l0,1.8l0.7,0l0-1.2C22.2,16.2,21.9,16.1,21.7,15.9z"/>
			<path class="st1" d="M3.9,26.2v-3L5.7,25l0.7-0.3v-8.5l1.8-1c-0.2,0.4-0.4,0.8-0.5,1.3c-0.5,2.3,0.7,4.3,0.8,4.4l0,0
				c0,0.5,0.2,1,0.6,1.4l0.3,0.3c0.1,0.1,0.3,0.1,0.4,0l0.2-0.2l0.4,0.5c0.1,0.1,0.3,0.1,0.4,0c0.3-0.2,0.7-0.2,0.9,0
				c0.2,0.3,0.2,0.7-0.1,0.9c-0.3,0.2-0.7,0.2-0.9,0c-0.1-0.1-0.3-0.1-0.4,0c-0.1,0.1-0.2,0.3,0,0.4c0.5,0.5,1.3,0.5,1.8,0.1
				s0.6-1.3,0.1-1.8c-0.4-0.4-1-0.5-1.5-0.3L10.6,22l0.2-0.2c0.1-0.1,0.2-0.3,0-0.4L10.6,21c-0.3-0.4-0.7-0.6-1.2-0.7l0,0
				c-0.1-0.2-2.3-3.7,1.4-6.5l1.1-0.6l-0.2-0.8l-5.3,0.1v-1.2L6,10.8H3.5l-0.4,0.4v15.5l0.5-0.4L3.9,26.2z M10.2,21.5L10.2,21.5
				l-0.4,0.5l0,0c-0.3-0.3-0.4-0.6-0.5-1C9.6,21,9.9,21.2,10.2,21.5z M9.8,13.3c-0.1,0.1-0.2,0.2-0.3,0.3l-1,0.5l-1.2-0.8L9.8,13.3z
				 M6.4,13.7l1.2,0.9l-1.2,0.6V13.7z M5.6,23.7l-1.5-1.5l1.5-1.4V23.7z M5.6,19l-1.4-1l1.4-1.1V19z M5.6,12.9v2.1l-1.5-1.2l1.5-1.4
				V12.9z M3.9,11.7h1.2l-1.2,1.2V11.7z M3.9,14.8l1.4,1.2l-1.4,1.2V14.8z M3.9,18.8l1.4,1.1l-1.4,1.4V18.8z"/>
			<path class="st1" d="M9.2,37.2c1.1,0,2-0.8,2.2-1.9v0c0.1-0.6-0.1-1.2-0.4-1.6c-0.4-0.5-0.9-0.8-1.4-0.8
				c-0.6-0.1-1.2,0.1-1.6,0.4c-0.5,0.4-0.8,0.9-0.8,1.4c-0.2,1.2,0.7,2.3,1.9,2.5C9,37.2,9.1,37.2,9.2,37.2z M8.5,35.5
				c-0.1-0.2-0.2-0.4-0.2-0.6c0.1-0.4,0.4-0.7,0.8-0.7c0,0,0.1,0,0.1,0c0.2,0,0.4,0.1,0.6,0.3c0.1,0.2,0.2,0.4,0.2,0.6
				c0,0.2-0.1,0.4-0.3,0.6c-0.2,0.1-0.4,0.2-0.6,0.2l0,0C8.9,35.8,8.7,35.7,8.5,35.5z"/>
			<path class="st1" d="M58.9,36.2c-0.1,0.1-0.1,0.2-0.2,0.2c-0.2,0.2-0.6,0.6-0.8,0.8l-0.1,0.1c-0.2,0.2-0.5,0.3-0.8,0.4
				c-0.7,0.3-1.2,0.8-1.4,1.6c-0.1-0.4-0.2-0.8-0.1-1.1c0.1-0.7,0.5-1.3,0.8-1.9c0.1-0.2,0.2-0.3,0.3-0.5c0.1-0.1,0.1-0.3,0-0.4
				c-0.1-0.1-0.2-0.2-0.4-0.2c-0.9,0.1-1.7,0.5-2.4,0.9c0.1-0.5,0.5-0.8,0.8-1.3c0-0.1,0.1-0.1,0.1-0.2c0.1-0.1,0.1-0.4,0-0.5
				c-0.1-0.1-0.3-0.2-0.5-0.1c-0.5,0.3-1.1,0.6-1.6,0.8c-0.4,0.2-0.9,0.4-1.4,0.6c-0.4,0.1-0.7,0.3-1,0.5c0.1-0.2,0.2-0.3,0.3-0.5
				c0.2-0.3,0.5-0.5,0.8-0.8c0.1-0.1,0.3-0.2,0.4-0.4c0.6-0.6,1-1.1,1.4-1.8c0.1-0.1,0.1-0.2,0-0.3c0-0.1-0.1-0.2-0.2-0.2
				c-0.4-0.1-0.8-0.2-1.3-0.2c-0.2,0-0.4,0.1-0.5,0.2l0,0c0,0,0,0,0,0c0,0,0-0.1,0-0.1c0.1-0.3,0.2-0.5,0.5-0.7c0,0,0,0,0.1-0.1
				c0.2-0.2,0.1-0.4,0.1-0.5s-0.1-0.2-0.4-0.3c0,0-0.1,0-0.1,0c-0.3,0.1-0.6,0.1-1,0c-0.6-0.1-1.3-0.2-2,0c0,0,0.1-0.1,0.1-0.1
				c0.4-0.4,0.9-0.6,1.6-0.8c0.4-0.1,0.8-0.3,1.1-0.5c0.1-0.1,0.2-0.1,0.4-0.2c0.3-0.1,0.3-0.3,0.3-0.5c0-0.1-0.1-0.3-0.3-0.5
				C51.2,28,50.9,28,50.5,28c0.2-0.1,0.3-0.2,0.5-0.4c0.1-0.2,0.3-0.2,0.7-0.4l0,0c0.1,0,0.3-0.2,0.3-0.3c0-0.2,0-0.3-0.2-0.4
				c-0.1,0-0.1-0.1-0.2-0.1c-0.1-0.1-0.2-0.1-0.3-0.2c-0.5-0.4-0.8-0.7-1-1.2c-0.2-0.4-0.5-0.6-0.8-0.7c-0.2-0.1-0.5-0.2-0.7-0.3
				c0.5-0.1,1-0.1,1.5,0.1c0.7,0.2,1.3,0.6,1.9,0.9l0,0c0.1,0,0.2,0.2,0.4,0.1c0.2,0,0.3-0.2,0.3-0.3c0.1-1-0.2-1.7-0.8-2.4
				c0.5,0.1,1,0.4,1.6,0.8c0.2,0.1,0.4,0.1,0.5-0.1c0.1-0.1,0.2-0.3,0.1-0.5c-0.2-0.3-0.2-0.3-0.3-0.5c0-0.1-0.1-0.2-0.1-0.3
				c-0.1-0.2,0-0.3,0-0.6c0-0.1,0-0.2,0-0.3c0-0.4,0.2-0.8,0.3-1.1c-0.2-0.2-0.4-0.3-0.6-0.5c-0.3,0.5-0.5,1.1-0.5,1.6
				c0,0.1,0,0.2,0,0.3c0,0.2,0,0.4,0,0.7c-0.7-0.3-1.4-0.5-2.1-0.5c-0.2,0-0.3,0.1-0.4,0.3c-0.1,0.2,0,0.3,0.1,0.4
				c0.7,0.6,1.2,1.2,1.3,1.9c-0.5-0.3-1-0.5-1.6-0.7c-1.3-0.5-2.4-0.1-3.4,0.4c-0.1,0.1-0.2,0.2-0.2,0.4c0,0.2,0.1,0.3,0.2,0.4
				c0.1,0.1,0.3,0.1,0.4,0.1c0.6,0.1,1.2,0.2,1.7,0.4c0.2,0.1,0.3,0.2,0.4,0.3c0.2,0.5,0.6,1,1.2,1.4c-0.2,0.1-0.3,0.2-0.4,0.4
				c-0.1,0.2-0.3,0.3-0.6,0.3c-0.3-0.1-0.5,0.1-0.5,0.2c-0.1,0.1-0.1,0.3,0,0.6l0,0c0.3,0.5,0.7,0.7,1.3,0.7
				c-0.2,0.1-0.4,0.2-0.6,0.2c-0.6,0.2-1.4,0.4-1.9,1c-0.1,0.1-0.3,0.2-0.5,0.2c0,0,0,0,0,0c-0.4,0-0.5,0.2-0.6,0.3
				c-0.1,0.3,0.1,0.6,0.2,0.7c0.2,0.2,0.3,0.3,0.6,0.3c0.2,0,0.5,0,0.7,0c0.7-0.1,1.3-0.1,1.9,0c0.1,0,0.3,0,0.4,0.1
				c-0.1,0.1-0.1,0.2-0.1,0.4c-0.1,0.4-0.2,0.5-0.5,0.6c-0.3,0.1-0.4,0.3-0.4,0.4c0,0.1,0,0.3,0.2,0.5c0.4,0.3,0.7,0.1,0.9,0
				c0.3-0.1,0.5-0.3,0.7-0.5c0.1,0,0.1-0.1,0.2-0.1l0,0c0,0,0.1-0.1,0.1-0.1c0.2,0,0.3,0,0.4,0c-0.3,0.4-0.6,0.8-1,1.2
				c-0.1,0.1-0.2,0.2-0.4,0.4c-0.3,0.3-0.6,0.5-0.8,0.9c-0.4,0.5-0.6,1.1-0.6,1.8c0,0.1,0.1,0.2,0.1,0.3c0.1,0.1,0.2,0.1,0.3,0.1
				c0.2,0,0.3-0.1,0.4-0.2l0.1,0c0.4-0.3,0.8-0.6,1.3-0.7c0.5-0.2,1-0.4,1.4-0.6c0,0,0.1,0,0.1-0.1C53.1,36,53,36.5,53.1,37
				c0,0.1,0.1,0.2,0.2,0.3c0.1,0.1,0.3,0,0.4,0c0.6-0.4,1.2-0.8,1.8-1c-0.3,0.6-0.7,1.2-0.7,1.9c-0.1,0.9,0.5,2.6,0.9,3
				c0.1,0.1,0.3,0.1,0.4,0.1c0.1-0.1,0.2-0.2,0.2-0.3c0-0.4,0.1-0.8,0.1-1.2c0.1-0.6,0.4-1,0.9-1.2c0.4-0.1,0.7-0.3,1-0.6l0.1-0.1
				c0.2-0.1,0.3-0.3,0.5-0.5c0.1-0.1,0.2-0.2,0.2-0.2C59.1,36.8,59,36.5,58.9,36.2z"/>
			<rect x="24.1" y="6.8" class="st1" width="0.9" height="0.9"/>
			<rect x="27.3" y="6.8" class="st1" width="0.9" height="0.9"/>
			<path class="st1" d="M23.2,5.7l2.6-1.9v1.7c0,0.1,0.1,0.2,0.1,0.3l0,0l0,0c0.1,0.1,0.3,0.1,0.4,0l0.1-0.1v0L29,3.9l0,0v1.3v0.4
				c0,0.1,0.1,0.2,0.1,0.3l0,0l0,0c0.1,0.1,0.3,0.1,0.4,0l0.1-0.1v0l2.6-1.9v0.9H33V3.2c0-0.1-0.1-0.2-0.1-0.3l0,0l0,0
				c-0.1-0.1-0.3-0.1-0.4,0L32.3,3v0l-2.6,1.9V3.5V3.2c0-0.1-0.1-0.2-0.1-0.3l0,0l0,0c-0.1-0.1-0.3-0.1-0.4,0L29.1,3v0l-2.6,1.9V3.5
				V3.2c0-0.1-0.1-0.2-0.1-0.3l0,0l0,0c-0.1-0.1-0.3-0.1-0.4,0l-3.3,2.4c-0.1,0.1-0.1,0.2-0.1,0.3v3.8c0.2,0.2,0.5,0.3,0.7,0.5V5.7z
				"/>
			<path class="st1" d="M20.1,11.7l0.4,0.2l0.4-0.7L20.5,11c-0.4-0.2-0.8-0.4-1.2-0.6l-0.4-0.2l-0.4,0.8l0.4,0.2
				C19.3,11.3,19.7,11.5,20.1,11.7z"/>
			<path class="st1" d="M35.6,18.2l0.4-0.1l-0.2-0.8l-0.4,0.1c-0.4,0.1-0.8,0.1-1.2,0.2l-0.4,0l0.1,0.9l0.4,0
				C34.8,18.3,35.2,18.2,35.6,18.2z"/>
			<path class="st1" d="M26,15.9l0.5-0.7l-1-0.7c0,0-0.2-0.1-0.4-0.3l-0.3-0.2l-0.5,0.7l0.3,0.2c0.2,0.2,0.4,0.3,0.4,0.3L26,15.9z"
				/>
			<path class="st1" d="M22.3,13.2c0.1,0.1,0.3,0.2,0.6,0.4l0.3,0.3l0.5-0.7l-0.3-0.3c-0.2-0.2-0.4-0.3-0.6-0.4
				c-0.1-0.1-0.3-0.2-0.5-0.3L22,11.9l-0.5,0.7l0.3,0.3C22,13,22.1,13.1,22.3,13.2z"/>
			<path class="st1" d="M32.5,18.4l0.1-0.9l-0.4,0c-0.4,0-0.8-0.1-1.2-0.2l-0.4-0.1L30.3,18l0.4,0.1c0.5,0.1,0.9,0.2,1.3,0.2
				L32.5,18.4z"/>
			<path class="st1" d="M29,17.6l0.3-0.8L29,16.6c-0.4-0.2-0.8-0.4-1.1-0.6l-0.4-0.2l-0.4,0.7l0.4,0.2c0.4,0.2,0.8,0.4,1.2,0.6
				L29,17.6z"/>
			<path class="st1" d="M53.7,29.7c0.6,3.4,3.9,5.4,4.2,5.5c0.1,0,0.4,0.2,0.9,0.5c-0.3-0.4-0.5-0.9-0.6-1.4c-0.7-0.4-3-2.1-3.5-4.7
				c-0.3-1.7,0.3-3.6,1.7-5.4c0-0.1,0-0.3,0-0.4c0-0.3,0-0.6-0.1-1C56.1,22.9,56,23,56,23c0,0,0,0,0,0
				C54.1,25.3,53.3,27.5,53.7,29.7z"/>
			<path class="st1" d="M50.7,51.3c-0.1,0-0.1,0-0.2,0c-0.2-0.2-0.8-1.1-1.3-1.9c-0.6-0.9-1.3-1.9-1.8-2.7c0.4-0.3,0.6-0.9,0.5-1.6
				c0,0-0.2-1.7-0.9-1.8c-0.2,0-0.4,0.1-0.6,0.4l0,0c-0.2,0.4-0.4,1-0.8,1.3c-0.1-0.1-0.3-0.1-0.4-0.1c0.3-0.6,0.4-1.3-0.2-2.1
				c0,0,0,0,0,0c-0.1-0.2-0.3-0.2-0.4-0.2c-0.2,0-0.3,0.1-0.4,0.2c0,0.1-0.1,0.2-0.1,0.3c-0.1,0.3-0.3,0.7-1,1
				c-0.7,0.3-1,0.8-1.1,1.5c-0.3-0.1-0.5-0.3-0.8-0.3c-0.4-0.1-0.9,0-1.3,0.3c-0.3,0.2-0.4,0.4-0.4,0.7c0,0.3,0.2,0.7,0.6,1
				c-0.4,0.1-0.8,0.1-1.1,0.2c-0.2,0.3-0.4,0.7-0.7,0.9c0.9-0.1,1.9-0.2,3-0.5c0.2,0,0.3-0.2,0.3-0.4c0-0.2-0.1-0.4-0.2-0.4
				c-0.4-0.2-0.8-0.6-1-0.8c0.1-0.1,0.4-0.3,0.7-0.2c0.4,0.1,1,0.4,1.1,0.7l0,0c0.2,0.4,0.5,0.3,0.6,0.2c0,0,0.4-0.2,0.2-0.6
				c-0.4-1.1,0.3-1.5,0.5-1.6c0.6-0.3,0.9-0.6,1.1-0.8c-0.1,0.6-0.6,1-0.7,1.1c-0.2,0.1-0.2,0.4-0.1,0.6c0.1,0.2,0.4,0.2,0.6,0.1
				c0,0,0.5-0.3,0.9-0.1c0.2,0.2,0.4,0.1,0.5,0.1c0.5-0.3,0.9-0.7,1.1-1.2c0.1,0.3,0.1,0.7,0,1.1C47,46,46.9,46,46.8,46.1
				c-0.1,0-0.3,0.1-0.4,0.4c0,0.2,0,0.3,0.1,0.4c0.6,0.7,1.4,1.9,2.1,3c1,1.5,1.3,2,1.6,2.2c0.1,0.1,0.2,0.1,0.4,0.1
				c0.1,0,0.1,0,0.2,0c0.1,0.3-0.1,0.8-0.2,1.2l-0.1,0c-0.1,0-0.2,0.1-0.2,0.2c-0.2,0.3-0.6,0.8-0.7,0.9c-0.3,0.2-0.6,0.1-1.2-0.2
				c-0.2-0.1-0.4-0.2-0.6-0.2c-0.9-0.2-2-0.4-3.3-0.1c-0.6,0.1-1.2,0.3-1.8,0.6c-0.7,0.4-1.1,2-1.2,2.7c0,0.2,0.1,0.5,0.3,0.5
				c0,0,0.1,0,0.1,0c0.2,0,0.4-0.1,0.4-0.4c0.2-1,0.6-1.9,0.8-2.1c0.5-0.3,1.1-0.5,1.6-0.6c1.1-0.2,2.1-0.1,2.9,0.1
				c0.1,0,0.3,0.1,0.4,0.2c0.5,0.3,1.4,0.7,2.1,0c0.2-0.2,0.6-0.7,0.8-0.9l0.1,0c0.1,0,0.2-0.1,0.3-0.2c0.1-0.2,0.8-1.5,0.3-2.4
				C51.3,51.4,51,51.3,50.7,51.3z"/>
			<path class="st1" d="M52.4,41.7c-1.3,0-2.6,0.6-3.4,1.5c0,0,0,0,0,0l0,0c-0.1,0.1-0.2,0.2-0.3,0.3l0.2,0.4
				c1.1,0.2,2.2,1.3,2.2,1.3l0.2,0.2l0.2-0.1c0.2-0.1,0.5,0,0.8,0.1l-1.2,2.2c-0.2,0-0.3,0-0.5,0c-0.1,0-0.2,0-0.3,0
				c-0.2,0-0.4,0-0.7,0c-0.3,0-0.5,0-0.8,0l0.8,1.1c0.4,0,1.1,0,1.5,0c0,0,0.1,0,0.1,0c0.4,0,0.8,0.1,1.2,0.1c1,0.1,1.9,0.4,2.8,0.6
				c0.2-0.3,0.4-0.6,0.6-0.9c-1.2-0.4-2.6-0.7-4-0.9l1-1.9c0.2,0.2,0.4,0.3,0.4,0.5l0.1,0.4l0.4-0.1c0.4-0.1,1,0.1,1.7,0.8
				c0,0,0,0,0,0l0,0c0.1,0.1,0.2,0.2,0.3,0.3l0.3,0.1c0.4-0.6,0.6-1.4,0.6-2.1C56.8,43.5,54.8,41.7,52.4,41.7z M55.9,46.7
				c-0.6-0.6-1.3-0.9-1.9-0.8c-0.5-0.8-1.7-1.4-2.5-1.3c-0.3-0.3-0.9-0.8-1.6-1.1c0.7-0.6,1.6-1,2.6-1c2,0,3.6,1.5,3.6,3.3
				C56,46.1,56,46.4,55.9,46.7z"/>
			<path class="st1" d="M41.7,52.9c0.3-0.2,0.6-0.1,0.8-0.1c0.2,0.1,0.4,0,0.5-0.2c0.1-0.1,0.1-0.3,0.1-0.5
				c-0.1-0.3-0.3-0.5-0.5-0.7c-0.3-0.2-0.6-0.3-1-0.3c-0.8-0.9-1.7-1.6-2.4-1.7c0,0-0.4-0.1-0.7-0.1c-0.7,0.1-1.4,0.3-1.9,0.8
				c-0.5,0.5-1,1.1-1.2,1.8l0,0c-0.1,0.2-0.1,0.6-0.2,0.8c-0.1,0.7,0.1,1.4,0.4,2.2l0.2,0.4c0.4,0.7,0.9,1.4,1.4,1.8
				c0.4,0.3,0.7,0.4,1,0.4c0.1,0,0.2,0,0.3-0.1c0.5-0.2,0.7-1,0.6-2.1l0,0c0-0.3-0.2-1.2-0.3-1.5c-0.1-0.3-0.1-0.5-0.2-0.8
				c0,0-0.1-1.1,0.4-1.2c0.5-0.1,0.9,0,1,0.3c0,0.1-0.1,0.2-0.1,0.4c-0.1,0.3,0,0.8,0.4,1.3c0.1,0.2,0.4,0.2,0.6,0.1
				c0.2-0.1,0.3-0.3,0.3-0.5C41.3,53.2,41.4,53,41.7,52.9z M38.3,56.9c-0.1,0-0.3,0-0.6-0.3c-0.4-0.3-0.8-0.8-1.2-1.4
				c0.4-0.4,1-0.8,1.8-0.6c0.1,0.3,0.1,0.8,0.1,0.9l0,0C38.6,56.2,38.5,56.8,38.3,56.9z M36.8,53.6c0.1-0.1,0.2-0.1,0.3-0.1
				c0,0,0.2,0,0.3,0c0,0.1,0,0.3,0,0.6c-0.1,0-0.1,0-0.2,0.1C36.9,53.9,36.8,53.7,36.8,53.6z M40.7,53c0-0.3,0.1-0.5,0.1-0.5
				c0.1-0.1,0.1-0.2,0-0.3c-0.1-0.3-0.4-0.6-0.7-0.7c-0.4-0.2-0.8-0.2-1.2-0.1c-0.3,0.1-0.5,0.3-0.7,0.6c-0.3,0.5-0.3,1.2-0.1,2
				c-0.1,0-0.1,0-0.2,0c0-0.3,0-0.6,0-0.7c0-0.2-0.1-0.3-0.3-0.4c-0.4-0.1-0.8,0-0.8,0c0,0-0.4,0.1-0.7,0.4c-0.2,0.3,0,0.7,0.1,0.9
				c0,0,0.1,0.1,0.1,0.2c0,0.1,0.1,0.1,0.1,0.2c-0.1,0.1-0.2,0.1-0.3,0.2c-0.2-0.5-0.3-1.1-0.3-1.7l0,0c0-0.1,0.1-0.4,0.1-0.6l0-0.1
				c0,0,0,0,0,0c0.2-0.6,0.5-1.2,1-1.5c0.4-0.3,0.9-0.5,1.6-0.6c0.9-0.1,2.1,1.1,2.5,1.6c0.1,0.1,0.2,0.2,0.3,0.1
				c0.4,0,0.6,0.1,0.8,0.2c0,0,0,0,0,0c-0.2,0-0.5,0-0.8,0.2C41.1,52.4,40.8,52.7,40.7,53z"/>
			<path class="st1" d="M37.8,55.6c-0.1-0.1-0.2-0.1-0.3,0c-0.1,0-0.2,0.1-0.3,0.2c-0.1,0.1-0.1,0.2,0,0.3c0,0.1,0.1,0.2,0.2,0.3
				c0.1,0,0.1,0.1,0.2,0.1c0,0,0.1,0,0.1,0c0.1,0,0.2-0.1,0.3-0.2c0.1-0.1,0.1-0.2,0-0.3C38,55.8,37.9,55.7,37.8,55.6z"/>
			<rect x="28.5" y="10.8" class="st1" width="2.3" height="0.9"/>
			<rect x="28.5" y="12.2" class="st1" width="2.3" height="0.9"/>
			<path class="st1" d="M35.1,6.9h-0.9c-0.1,0-0.1,0.1-0.1,0.1v0.8h-0.8c-0.1,0-0.1,0.1-0.1,0.1v0.9c0,0.1,0.1,0.1,0.1,0.1h0.8v0.8
				c0,0.1,0.1,0.1,0.1,0.1h0.9c0.1,0,0.1-0.1,0.1-0.1V8.9H36c0.1,0,0.1-0.1,0.1-0.1V7.9c0-0.1-0.1-0.1-0.1-0.1h-0.8V7
				C35.2,7,35.2,6.9,35.1,6.9z"/>
			<path class="st1" d="M35.9,14.5v-1.8h0.5v-0.5h-0.7h-2h-0.7v0.5h0.5v2.3c0.2,0,0.3,0,0.5,0v-2.2h1.5v2
				C35.6,14.6,35.7,14.6,35.9,14.5z"/>
			<path class="st1" d="M31.4,5.5v3.8h-3.8c-0.2,0-0.4,0.2-0.4,0.4v3.1c0.2,0.2,0.5,0.3,0.7,0.5v-3.2h3.5v4.7
				c0.2,0.1,0.5,0.1,0.7,0.1v-9h5v7.8l0.7-0.5v-3.1h3.5v1.5l0.2,0.1c0.1-0.2,0.3-0.3,0.6-0.3V9.7c0-0.2-0.2-0.4-0.4-0.4h-3.8V5.5
				c0-0.2-0.2-0.4-0.4-0.4h-5.8C31.6,5.2,31.4,5.3,31.4,5.5z"/>
			<path class="st1" d="M34.3,39.9l-0.1,2.7c0.1,0,0.3,0,0.4,0.1c0.1,0,0.3,0.1,0.4,0.2l1.3-2.4C36.3,40.4,35.6,39.6,34.3,39.9z"/>
			<path class="st1" d="M33.6,42.8l-0.8-2.6c0,0-1.2-0.1-1.8,1.1l1.9,2C33.1,43,33.3,42.9,33.6,42.8z"/>
			<path class="st1" d="M29.5,44.5l2.8,0.1c0-0.1,0-0.3,0.1-0.5c0-0.1,0.1-0.3,0.2-0.4L30,42.5C30,42.5,29.2,43.2,29.5,44.5z"/>
			<path class="st1" d="M30.8,47.9l2-1.9c-0.2-0.2-0.4-0.5-0.5-0.7l-2.6,0.8C29.7,46.1,29.7,47.2,30.8,47.9z"/>
			<path class="st1" d="M32.1,48.8C32.1,48.8,32.1,48.8,32.1,48.8C32.1,48.8,32.1,48.8,32.1,48.8C32.1,48.8,32.1,48.8,32.1,48.8
				C32.1,48.8,32.1,48.8,32.1,48.8C32.1,48.9,32.1,48.9,32.1,48.8C32.2,48.9,32.2,48.9,32.1,48.8c0.1,0.1,0.1,0.1,0.1,0.1
				c0,0,0,0,0,0c0,0,0,0,0.1,0c0,0,0,0,0,0c0,0,0,0,0.1,0c0,0,0,0,0,0c0,0,0,0,0.1,0c0,0,0,0,0,0c0,0,0.1,0,0.1,0c0,0,0,0,0,0
				c0,0,0.1,0,0.1,0c0,0,0,0,0,0c0,0,0.1,0,0.1,0c0,0,0,0,0,0c0,0,0.1,0,0.1,0c0,0,0,0,0,0c0,0,0.1,0,0.1,0c0,0,0,0,0,0
				c0,0,0.1,0,0.1,0c0,0,0,0,0,0c0,0,0.1,0,0.1,0c0,0,0,0,0,0c0,0,0.1,0,0.2,0c0,0,0,0,0,0c0,0,0.1,0,0.1,0c0,0,0,0,0,0
				c0,0,0.1,0,0.1,0c0,0,0,0,0,0c0,0,0.1,0,0.1,0c0,0,0,0,0,0c0,0,0.1,0,0.1,0c0,0,0,0,0,0l0-0.1l0.1-2.7l0,0c-0.1,0-0.3,0-0.4-0.1
				c-0.1,0-0.3-0.1-0.4-0.2l-1.1,2.1L32.1,48.8C32.1,48.8,32.1,48.8,32.1,48.8C32.1,48.8,32.1,48.8,32.1,48.8z"/>
			<path class="st1" d="M37.5,48l-1.9-2c-0.2,0.2-0.5,0.4-0.7,0.4l0.8,2.6C35.6,49.1,36.8,49.1,37.5,48z"/>
			<path class="st1" d="M38.9,44.7l-2.8-0.1c0,0.1,0,0.3-0.1,0.4c0,0.1-0.1,0.3-0.2,0.4l2.5,1.3C38.4,46.8,39.2,46,38.9,44.7z"/>
			<path class="st1" d="M38.7,43.2c0,0,0.1-1.2-1.1-1.8l-2,1.9c0.2,0.2,0.4,0.5,0.4,0.8L38.7,43.2z"/>
			<path class="st1" d="M35.6,44.6c0-0.8-0.6-1.4-1.4-1.4c-0.8,0-1.4,0.6-1.4,1.4c0,0.8,0.6,1.4,1.4,1.4C35,46,35.6,45.4,35.6,44.6z
				"/>
			<rect x="34.3" y="29.2" class="st1" width="0.9" height="0.9"/>
			<rect x="34.3" y="30.7" class="st1" width="0.9" height="0.9"/>
			<rect x="43.5" y="29.2" class="st1" width="0.9" height="0.9"/>
			<rect x="43.5" y="30.7" class="st1" width="0.9" height="0.9"/>
			<rect x="45.4" y="16.7" class="st1" width="0.9" height="0.9"/>
			<rect x="40.3" y="14" class="st1" width="0.9" height="0.9"/>
			<path class="st1" d="M12,41c2.8,0.6,5.8,2.2,7.3,4l1-0.3c-1.6-2.1-4.9-3.8-8.1-4.6c-2.8-0.7-6.3-0.5-9.1,0.8v1.1
				C5.9,40.4,9.3,40.3,12,41z"/>
			<path class="st1" d="M13.3,39.3L13.3,39.3c3,0.7,6.5,2.9,8,4.8l1-0.3c0,0,0,0,0,0c-1.5-2-4.9-4.3-8-5.2c0.2-0.1,0.5-0.3,0.5-0.3
				c0.1-0.1,0.3-0.2,0.4-0.4c3,0.9,6.7,3.5,8,5.5c0,0,0,0,0,0l0.9-0.3C24.1,43,24,42.9,24,42.8c-0.3-0.4-0.7-0.9-1.2-1.4
				c0.2-0.2,0.8-0.6,1-0.7c2.3-1.3,8.3-3.2,11.4-2.4c0.1,0.1,0.2,0.1,0.2,0.1c0.8,0.6,2.1,1,3.4,1.1c0.1,0,0.1,0,0.2,0
				c0.2,0,0.4,0,0.6,0c0,0.1,1.4-0.2,1.8-0.4c0.1,0,0.1,0,0.2-0.1c0.5-0.2,1.1-0.3,1.7-0.1c0.3,0.1,0.5,0.2,0.8,0.4
				c0,0,0.1,0,0.1,0.1c0.1,0.1,0.2,0.2,0.3,0.2c1,0.8,2.1,1.5,3.5,1.7c0.8,0.1,1.7,0,2.5-0.2c0.1,0,0.3-0.1,0.4-0.1
				c0.5-0.1,0.8-0.4,1.3-0.5c0.7-0.1,1.7-0.2,2.5,0.1c-0.2-0.4-0.4-0.7-0.4-1.1c-0.6,0,0,0-0.7,0c-1-0.1-1.7,0-2.8,0.4
				c0,0-0.2,0.1-0.4,0.1c-0.5,0.1-1.2,0.3-1.7,0.3c0,0-0.1,0-0.1,0c-1-0.1-2.1-0.5-3-1.1c-0.1,0-0.1-0.1-0.2-0.1
				c-0.3-0.2-0.6-0.5-0.9-0.7c-0.2-0.1-0.4-0.2-0.6-0.3c-0.9-0.3-1.9-0.3-2.7,0.1c-0.6,0.3-1.4,0.4-2.2,0.4
				c-1.5-0.1-3.3-1.3-3.3-1.3c-1.1-0.9-2.4-1.7-3.9-2.3c0,0,0,0,0,0c0,0,0,0,0,0c1.3-0.7,2.9-1.3,4.5-1.6c0.3-0.1,0.6-0.1,0.9-0.1
				c0.3,0,0.7-0.1,1-0.1c0.4,0,2,0,2,0c0.4,0,0.9,0,1.3,0c2.9,0.2,5.6,1.1,7.7,2.7c0.1-0.4,0.4-0.8,0.6-1c-1.1-0.8-2.4-1.4-3.8-1.9
				l0-4.9c0-0.1,0-0.2-0.1-0.3c-0.1-0.1-0.2-0.1-0.3-0.1l-2.3,0l0-0.2c0-0.2-0.1-0.3-0.2-0.4l-3-1.9l0-0.5l2.3,0
				c0.1,0,0.2,0,0.3-0.1c0.1-0.1,0.1-0.2,0.1-0.3l0-1.4c0-0.1,0-0.2-0.1-0.3c-0.1-0.1-0.2-0.1-0.3-0.1c0,0,0,0,0,0l-2.7,0
				c-0.1,0-0.2,0-0.3,0.1c-0.1,0.1-0.1,0.2-0.1,0.3l0,2.3l-3,1.9c-0.1,0.1-0.2,0.2-0.2,0.4l0,0.2l-2.3,0c-0.1,0-0.2,0-0.3,0.1
				C33,27.9,33,28,33,28.1l0,5c-0.1,0-0.1,0-0.1,0.1c-0.2,0.1-0.5,0.2-0.7,0.3c-0.1,0-0.1,0.1-0.2,0.1c-0.3-0.4-0.6-0.8-0.8-1.3
				c-0.2-0.3-0.3-0.7-0.4-1c-0.1-0.4-0.1-0.7-0.1-1.1c0-0.4,0.1-0.8,0.2-1.1c0,0,0.4-1.2,0.4-1.2c-0.5,0-0.9-0.1-1.4-0.1
				c0-0.2,0-0.4,0-0.6c0-0.1,0-0.3,0-0.4c0-0.1,0-0.1,0-0.2c0,0,0-0.1,0-0.1c0,0,0-0.1,0-0.1c0-0.1,0.1-0.3,0.1-0.4
				c0-0.1,0-0.1,0.1-0.2c0,0,0-0.1,0-0.1c0,0,0-0.1,0-0.1c0.1-0.1,0.1-0.3,0.2-0.4c0,0,0-0.1,0.1-0.1c0,0,0,0,0-0.1
				c0-0.1,0.1-0.1,0.1-0.2c0.1-0.1,0.2-0.2,0.3-0.3c0,0,0.1-0.1,0.1-0.1c0,0,0,0,0.1,0c0,0,0,0,0.1,0c0.1-0.1,0.2-0.1,0.3-0.2
				c0,0,0.1-0.1,0.1-0.1c0,0,0.1,0,0.1,0c0,0,0.1,0,0.1,0c0.2-0.1,0.4-0.1,0.6-0.2c0,0,0.1,0,0.1,0c0,0,0,0,0,0c0,0,0.1,0,0.1,0
				c0.1,0,0.2,0,0.3,0c0.1,0,0.2,0,0.3,0c0.1,0,0.1,0,0.2,0c0,0,0.1,0,0.1,0c0,0,0,0,0,0c0.3,0,0.5,0.1,0.8,0.2c0.1,0,0.1,0,0.2,0.1
				c0,0,0.1,0,0.1,0c0,0,0,0-0.1,0c0,0,0,0,0,0c0.1,0,0.1,0.1,0.2,0.1c0.1,0.1,0.3,0.2,0.4,0.2c0.8,0.3,1.7,0,2.6-0.2
				c0.2,0,0.3-0.1,0.5-0.1v-0.9c-0.1,0-0.2,0-0.4,0.1c-0.3,0.1-0.7,0.1-1,0.2c-0.1,0-0.2,0-0.3,0.1c0,0-0.1,0-0.1,0c0,0,0,0-0.1,0
				c-0.1,0-0.1,0-0.2,0c-0.1,0-0.3,0-0.4,0c0,0-0.1,0-0.1,0c0,0,0,0,0,0c0,0,0,0,0,0c0,0-0.1,0-0.1,0c0,0-0.1,0-0.1,0c0,0,0,0,0,0
				c-0.1,0-0.1-0.1-0.2-0.1c-0.2-0.1-0.4-0.2-0.6-0.3c-0.5-0.2-1-0.3-1.6-0.3c-1.1,0-2.2,0.4-2.9,1.2c-0.5,0.5-0.9,1.1-1.1,1.8
				C29,26.6,29,27.2,29,27.8c-0.4,0-0.8,0-1.2,0c0-0.9,0.1-1.8,0.4-2.7c0.1-0.2,0.1-0.4,0.3-0.6c0.1-0.1,0.1-0.2,0.2-0.3
				c0,0,0.1-0.1,0.1-0.1c0,0,0,0,0.1-0.1c0,0,0,0,0,0c0.1-0.2,0.3-0.3,0.5-0.5c0,0,0.1-0.1,0.1-0.1c0,0,0,0,0.1-0.1c0,0-0.1,0,0,0
				c0.1-0.1,0.2-0.1,0.3-0.2c0.2-0.1,0.4-0.2,0.6-0.3c0,0,0.1,0,0.1-0.1c0,0,0.1,0,0.1,0c0.1,0,0.2-0.1,0.3-0.1
				c0.4-0.1,0.9-0.2,1.4-0.3c0.5-0.1,1-0.2,1.4-0.6c0.4-0.3,0.6-0.7,1-1c0.1-0.1,0.1-0.1,0.2-0.2c0.1-0.1,0.2-0.1,0.3-0.2
				c0.1-0.1,0.2-0.1,0.3-0.2c0,0,0,0,0.1,0c0,0,0,0,0,0c0,0,0,0,0,0c0.1,0,0.1-0.1,0.2-0.1c0.4-0.2,0.9-0.3,1.3-0.4l0.1,0
				c0.7-0.2,1.5-0.2,2.4-0.2c1.6,0.1,3.3,0.4,4.8,0.8c1.4,0.3,2.9,0.7,4.3,0.8c0.1,0,0.3,0,0.4,0c1.5,0,3.2-0.6,4.3-1.6
				c-0.2-0.2-0.4-0.4-0.7-0.6c-1,0.8-2.4,1.3-3.5,1.3v-2.9c0-0.1-0.1-0.2-0.1-0.3l-0.6-0.5v-1.6c0-0.2-0.2-0.3-0.3-0.3h-1
				c-0.2,0-0.3,0.2-0.3,0.3v0.4L46,14.6c-0.1-0.1-0.3-0.1-0.4,0l-1.3,0.9v-0.9c0-0.1-0.1-0.2-0.1-0.3l-0.6-0.5v-1.6
				c0-0.2-0.2-0.3-0.3-0.3h-1c-0.2,0-0.3,0.2-0.3,0.3v0.4L41,12c-0.1-0.1-0.3-0.1-0.4,0l-3.3,2.4c-0.1,0.1-0.1,0.1-0.1,0.2
				c-2.4,0.9-4.4,1.1-6.2,0.6c-2.3-0.6-4.2-2-6-3.4l-0.1-0.1c-1.6-1.3-3.1-2.5-4.9-3.3c-0.2,0.2-0.5,0.4-0.7,0.6l0,0
				c1.8,0.8,3.4,2,5,3.2c1.9,1.5,3.9,3,6.3,3.7c1.9,0.6,4.2,0.4,6.6-0.4v2.3l0.7-0.2v-2.7l2.9-2.1l1.3,0.9c0.1,0.1,0.2,0.1,0.4,0
				c0.1-0.1,0.2-0.2,0.2-0.3v-0.7h0.3V14c0,0.1,0.1,0.2,0.1,0.3l0.6,0.5V16l-1.3,1c-0.1,0.1-0.1,0.2-0.1,0.3v1.6
				c-1.6-0.3-3.3-0.4-4.9-0.1c0,0-0.1,0-0.1,0c-0.6,0.2-1.1,0.3-1.7,0.5c-2.4,0.7-5,0.4-7.3-0.6c-2.4-1.1-4.4-2.9-6.5-4.4
				c-2.4-1.7-5-3.3-8-3.4c-2.1-0.1-4.1,0.1-6.2,0.1v0.8c1.9,0,3.8-0.1,5.8-0.1c1.1,0,2.2,0.1,3.3,0.6c1.7,0.7,3.3,1.7,4.7,2.8
				c1.7,1.2,3.3,2.6,5.1,3.7c-1.3-0.1-2.6-0.1-3.9,0.1c-1.8,0.2-3.5,0.7-5,1.5c-0.8,0.5-1.6,1-2.3,1.7l0.6,0.6
				c0.1-0.1,0.3-0.3,0.4-0.4c0.1-0.1,0.1-0.1,0.2-0.2c0,0,0.1-0.1,0.1-0.1c0,0,0,0,0,0c0,0,0.1,0,0.1,0c0.3-0.2,0.7-0.5,1-0.7
				c0.4-0.2,0.7-0.4,1.1-0.6c0,0,0.1,0,0.1-0.1c0,0,0.1,0,0.1,0c0.1,0,0.2-0.1,0.3-0.1c0.2-0.1,0.4-0.1,0.6-0.2
				c1.7-0.6,3.5-0.7,5.3-0.7c1.1,0,2.2,0.1,3.2,0.2c0,0,0,0,0.1,0c1.7,0.7,3.5,1,5.3,0.8c-0.1,0.1-0.2,0.2-0.3,0.4
				c-0.1,0.1-0.2,0.2-0.3,0.2c0,0,0,0,0,0c0,0,0,0-0.1,0c-0.1,0-0.1,0.1-0.2,0.1c0,0,0,0,0,0c0,0,0,0-0.1,0c-0.1,0-0.1,0-0.2,0.1
				c-0.1,0-0.2,0.1-0.4,0.1c-0.5,0.1-0.9,0.1-1.4,0.3c-0.5,0.1-0.9,0.3-1.3,0.6c-0.9,0.5-1.6,1.3-2,2.3c-0.4,1.1-0.5,2.2-0.6,3.3
				c-0.2,0-0.3,0-0.3,0c-0.3,0-0.7,0.1-1,0.1c0,0,0.3,1.1,0.3,1.2c0.1,0.3,0.1,0.7,0.1,1c0,0.7-0.2,1.4-0.5,2
				c-0.2,0.4-0.4,0.7-0.7,1.1c-0.2,0.2-0.3,0.4-0.5,0.5c-0.1,0-0.1,0-0.2,0c-0.1,0-0.2,0-0.3,0c-0.3,0-0.5,0-0.8,0
				c-0.2,0-0.3,0-0.5,0c-0.2,0-0.4,0-0.5,0.1v-1.8h1c0.1,0,0.6-0.1,0.8-0.2c0.1-0.1,0.3-0.3,0.3-0.3c0.4-0.4,0.6-0.9,0.6-1.5
				c0-0.2-0.2-0.3-0.3-0.3h-1.1c-0.5,0-0.9,0.2-1.3,0.4v-0.7c0.3,0.1,0.7,0.1,0.9-0.1c0.3-0.2,0.5-0.4,0.6-0.7
				c0.4,0.1,0.8,0,1.1-0.3c0.3-0.3,0.4-0.7,0.3-1.1c0.4-0.1,0.7-0.4,0.8-0.9c0.1-0.4,0-0.8-0.3-1.2c0.3-0.3,0.4-0.7,0.3-1.2
				c-0.1-0.4-0.4-0.7-0.8-0.9c0.1-0.4,0-0.8-0.3-1.1c-0.3-0.3-0.7-0.4-1.1-0.3c-0.1-0.4-0.4-0.7-0.9-0.8c-0.4-0.1-0.8,0-1.2,0.3
				c-0.3-0.3-0.7-0.4-1.2-0.3c-0.4,0.1-0.7,0.4-0.9,0.8c-0.4-0.1-0.8,0-1.1,0.3c-0.3,0.3-0.4,0.7-0.3,1.1c-0.4,0.1-0.7,0.4-0.8,0.9
				c-0.1,0.4,0,0.8,0.3,1.2c-0.3,0.3-0.4,0.7-0.3,1.2c0.1,0.4,0.4,0.7,0.8,0.9c-0.1,0.4,0,0.8,0.3,1.1c0.3,0.3,0.7,0.4,1.1,0.3
				c0.1,0.3,0.3,0.6,0.6,0.7c0.3,0.1,0.7,0.2,1,0v0.8c-0.4-0.3-0.8-0.5-1.3-0.5h-1.1c-0.2,0-0.3,0.2-0.3,0.3c0,0.6,0.2,1.1,0.6,1.5
				c0,0,0.3,0.4,0.8,0.5c0.3,0.1,1.1,0,1.4,0v1.9c-1.7,0.3-3.4,0.9-4.8,1.7c0-0.1,0-0.1,0-0.1l0,0c0,0,0-0.1,0-0.3
				c0.2-0.1,0.3-0.1,0.5-0.2c0.5-0.2,0.9-0.4,1.1-0.5c0.2-0.1,0.4-0.2,0.5-0.4l0,0c0.1-0.2,0.1-0.4,0.1-0.7l0,0c0,0,0-0.1,0-0.2l0,0
				c0,0,0-0.1,0-0.1c0-0.1,0-0.2-0.1-0.4c0-0.1-0.1-0.3-0.1-0.4c0,0,0-0.1,0-0.1l-0.1-0.2l0,0c-0.1-0.2-0.2-0.3-0.3-0.4
				c0,0-0.1-0.1-0.1-0.1l0,0c0,0-0.1,0-0.1,0c0,0,0,0,0,0c-0.2-0.1-0.4-0.1-0.6-0.1c-0.2,0-0.7,0.1-1.2,0.2c-0.2,0-0.4,0.1-0.5,0.1
				c0-0.1-0.1-0.1-0.1-0.2c0,0-0.1-0.1-0.1-0.1c0,0,0,0,0,0l0,0c0,0-0.1-0.1-0.2-0.2c0.1-0.1,0.2-0.3,0.3-0.5c0.3-0.4,0.5-0.9,0.6-1
				c0.1-0.2,0.2-0.4,0.2-0.7l0,0c0-0.2-0.1-0.4-0.3-0.6l0,0c0,0-0.1-0.1-0.2-0.1l0,0c0,0-0.1-0.1-0.1-0.1c-0.1-0.1-0.2-0.2-0.3-0.3
				l-0.6-0.4l0,0c-0.2-0.2-0.5-0.2-0.8-0.2c-0.2,0-0.4,0.1-0.5,0.3c-0.1,0.1-0.5,0.4-0.9,0.8c-0.1,0.1-0.3,0.3-0.4,0.4
				c-0.1,0-0.1-0.1-0.2-0.1c-0.1,0-0.1,0-0.2-0.1l-0.2-0.1c0,0-0.1,0-0.1,0l-0.1,0c0-0.2,0-0.4,0-0.5c0-0.3,0-0.5-0.1-0.9l0-0.3
				c0-0.2,0-0.4-0.2-0.5c-0.2-0.2-0.4-0.4-0.7-0.4c-0.1,0-0.2,0-0.3,0l-0.1,0c-0.1,0-0.3,0-0.4,0c-0.2,0-0.4,0-0.6,0l-0.2,0
				c-0.3,0-0.6,0.1-0.8,0.3c-0.1,0.1-0.2,0.3-0.2,0.5c0,0.1,0,0.2-0.1,0.3c-0.1,0.3-0.1,0.6-0.1,0.8c0,0.2-0.1,0.4-0.1,0.5
				c0,0,0,0,0,0c0,0-0.1,0-0.1,0l-0.2,0c-0.1,0-0.1,0-0.3,0.1c0,0-0.1,0-0.1,0c-0.1-0.1-0.2-0.3-0.3-0.4c-0.3-0.4-0.7-0.8-0.8-0.9
				c-0.1-0.2-0.3-0.3-0.5-0.3c-0.3-0.1-0.6,0-0.8,0.1l-0.6,0.4l-0.6,0.4c-0.1,0.1-0.1,0.1-0.2,0.2v1.4c0.1,0.2,0.2,0.5,0.4,0.8
				c0.1,0.2,0.2,0.3,0.3,0.5c0,0-0.1,0.1-0.1,0.1c-0.1,0.1-0.1,0.1-0.2,0.2l0,0L3.4,31c0,0,0,0-0.1,0.1l0,0c0,0,0,0,0,0
				c-0.1,0-0.1,0-0.2-0.1v1.2c0.1,0,0.2,0.1,0.3,0.1l0.5,0.2L4.1,32c0.1-0.1,0.1-0.2,0.2-0.2c0,0,0.1-0.1,0.1-0.1l0.1-0.1
				c0,0,0,0,0,0c0,0,0,0,0-0.1l0,0c0.1-0.1,0.2-0.2,0.3-0.3l0.4-0.4L5,30.3L5,30.2c0,0,0,0,0-0.1c-0.1-0.2-0.3-0.5-0.4-0.7
				c-0.2-0.4-0.4-0.7-0.4-0.9l0.4-0.3L5,28c0.1,0.2,0.4,0.5,0.7,0.8c0.2,0.3,0.4,0.5,0.5,0.6l0,0c0,0,0,0.1,0.1,0.1l0.3,0.4l0.4-0.2
				c0,0,0,0,0.1,0l0,0c0.2-0.1,0.3-0.1,0.4-0.2l0,0c0,0,0.1,0,0.1,0l0.2,0c0,0,0.1,0,0.1,0l0,0c0.1,0,0.2,0,0.3-0.1l0.6-0.1l0-0.5
				c0-0.1,0-0.5,0.1-0.9c0-0.3,0.1-0.5,0.1-0.8c0-0.1,0-0.2,0-0.2l0.1,0c0.1,0,0.3,0,0.4,0c0.2,0,0.3,0,0.4,0l0,0c0,0,0,0,0.1,0
				l0,0.2c0,0.3,0.1,0.5,0.1,0.8c0,0.4,0,0.7,0,0.9l0,0.5l0.6,0.2c0.1,0,0.1,0,0.1,0l0.1,0c0,0,0.1,0,0.1,0l0.2,0.1
				c0,0,0.1,0,0.2,0.1c0,0,0.1,0.1,0.2,0.1c0.1,0,0.1,0.1,0.2,0.1c0,0,0,0,0.1,0l0.4,0.2l0.3-0.4c0,0,0.1-0.1,0.1-0.1
				c0.2-0.2,0.3-0.4,0.5-0.6c0.3-0.3,0.6-0.6,0.7-0.7l0.5,0.3c0.1,0,0.1,0.1,0.2,0.2c0,0,0.1,0.1,0.1,0.1c0,0,0,0,0.1,0.1
				c-0.1,0.2-0.3,0.5-0.5,0.9c-0.2,0.3-0.4,0.6-0.5,0.8l-0.3,0.4l0.3,0.4c0,0,0,0,0,0.1l0,0c0.2,0.2,0.3,0.4,0.3,0.5l0,0
				c0,0,0,0,0,0c0,0,0,0,0,0l0,0c0,0,0,0,0,0c0,0.1,0.1,0.2,0.3,0.4c0,0,0,0,0,0.1c0,0,0,0,0,0c0,0,0,0,0,0l0.2,0.4l0.5-0.1
				c0.2,0,0.5-0.1,0.9-0.2c0.4-0.1,0.8-0.1,1-0.1c0,0,0,0,0,0.1l0.1,0.4c0,0.2,0.1,0.3,0.1,0.4c0,0,0,0.1,0,0.1
				c-0.2,0.1-0.6,0.3-0.9,0.4c-0.3,0.1-0.7,0.2-0.9,0.3l-0.4,0.1l0,0.5c0,0,0,0,0,0.1l0,0c0,0.3,0,0.4,0,0.6h0c0,0,0,0.3-0.1,0.6
				l0,0c0,0,0,0,0,0.1l0,0.3c-0.3,0.2-0.6,0.5-0.9,0.7c0,0-0.8,0.5-1.8,0.9C10,37.7,6.7,37.7,4,38.6l0.1,0c-0.1-0.1-0.1-0.2-0.3-0.4
				l0,0c0,0,0-0.1,0-0.1l-0.2-0.4l-0.4,0.1v2.3C6.1,38.5,10.6,38.6,13.3,39.3z M44.8,28.5l0,4.1c-0.6-0.2-1.2-0.3-1.8-0.4l0-3.7
				L44.8,28.5z M39.6,32c-0.4,0-0.7,0-1.1,0l0-1.4c0-0.4,0.3-0.8,0.8-0.8c0.4,0,0.8,0.3,0.8,0.8l0,1.4C40,32,39.8,32,39.6,32z
				 M41.6,23.3l0,0.5l-1.8,0l0-0.5L41.6,23.3z M39.3,25.9l2.8,1.7l0,4.5c-0.3,0-0.5-0.1-0.8-0.1c-0.2,0-0.5,0-0.7,0l0-1.4
				c0-0.7-0.6-1.3-1.3-1.3c-0.7,0-1.3,0.6-1.3,1.3l0,1.4c0,0-0.1,0-0.1,0c-0.4,0-0.9,0.1-1.3,0.1l0-4.5L39.3,25.9z M35.7,28.6l0,3.8
				c-0.1,0-0.1,0-0.2,0c-0.6,0.1-1.2,0.3-1.7,0.4l0-4.3L35.7,28.6z M42.9,17.4l2.9-2.1l1.3,0.9c0.1,0.1,0.2,0.1,0.4,0
				c0.1-0.1,0.2-0.2,0.2-0.3v-0.7H48v1.5c0,0.1,0.1,0.2,0.1,0.3l0.6,0.5v2.7c-1.4-0.2-2.8-0.4-4-0.7c-0.6-0.1-1.2-0.3-1.8-0.4V17.4z
				 M20.4,39.5c-0.3-0.2-0.7-0.5-1-0.7c0.2-0.2,0.4-0.3,0.7-0.5c2.1-1.4,6-2.7,8.8-3c0.1,0,0.2,0,0.3,0.1c0.4,0.1,0.9,0.2,1.3,0.4
				c0,0,0.1,0,0.1,0c-3.1,0.3-7.2,1.7-9.3,3.1c-0.2,0.2-0.4,0.3-0.6,0.5C20.6,39.3,20.5,39.4,20.4,39.5z M32.5,36.5
				c0.5,0.2,0.9,0.5,1.3,0.8c-3.1-0.1-8.2,1.2-10.7,2.7c-0.2,0.1-0.5,0.3-0.7,0.4c0,0-0.2,0.2-0.4,0.3c-0.3-0.2-0.6-0.5-0.9-0.7
				c0,0,0,0,0.1,0c0.2-0.2,0.5-0.3,0.7-0.5C24.3,38.1,29.5,36.4,32.5,36.5z M26.2,33.3c0.2-0.3,0.4-0.7,0.6-1
				c0.3-0.7,0.4-1.4,0.5-2.1c0-0.4,0-0.9-0.1-1.3c0.7-0.1,1.5-0.1,2.3-0.1c0.2,0,0.3,0,0.5,0c-0.1,0.4-0.2,0.9-0.2,1.3
				c0,0.6,0.1,1.1,0.2,1.7c0.1,0.3,0.2,0.7,0.4,1c0,0.1,0.1,0.1,0.1,0.2c0.2,0.4,0.4,0.7,0.7,1c-0.2,0.1-0.5,0.3-0.7,0.4
				c0,0,0,0-0.1,0c-0.1,0-0.3-0.1-0.4-0.1c-0.7-0.2-1.3-0.3-2-0.4c-0.4-0.1-0.9-0.1-1.3-0.1c-0.3,0-0.5,0-0.8,0
				C25.9,33.7,26.1,33.5,26.2,33.3z M23.4,30.5h0.8c-0.2,0.6-0.7,1-1.3,1h-0.7v-0.2C22.3,30.8,22.8,30.5,23.4,30.5z M22.9,28.6
				c-0.1,0.1-0.2,0.2-0.3,0.3l0,0c-0.1,0-0.3,0-0.4-0.1c-0.1-0.1-0.2-0.2-0.2-0.3v-0.7c0.2,0,0.3-0.1,0.5-0.1l0.4,0.6
				C23,28.3,23,28.4,22.9,28.6z M24.3,27.9L24.3,27.9C24.2,28,24,28,23.9,28c-0.1,0-0.3-0.1-0.3-0.2l-0.4-0.6
				c0.1-0.1,0.2-0.2,0.3-0.3l0.6,0.4c0.1,0.1,0.2,0.2,0.2,0.3C24.4,27.6,24.4,27.8,24.3,27.9z M25.2,26.2L25.2,26.2
				c0,0.1-0.1,0.3-0.3,0.3c-0.1,0.1-0.3,0-0.4,0l-0.6-0.4c0.1-0.2,0.1-0.3,0.1-0.5h0.7c0.1,0,0.3,0.1,0.3,0.2
				C25.2,25.9,25.3,26.1,25.2,26.2z M24.6,24L24.6,24c0.1-0.1,0.3-0.1,0.4,0c0.1,0.1,0.2,0.2,0.3,0.3l0,0c0,0.1,0,0.3-0.1,0.4
				c-0.1,0.1-0.2,0.2-0.3,0.2h-0.7c0-0.2-0.1-0.3-0.1-0.5L24.6,24L24.6,24z M23.6,22.7c0.1-0.1,0.2-0.2,0.3-0.2c0.1,0,0.3,0,0.4,0.1
				l0,0c0.1,0.1,0.1,0.2,0.1,0.4c0,0.1-0.1,0.3-0.2,0.3l-0.6,0.4c-0.1-0.1-0.2-0.2-0.3-0.3L23.6,22.7z M22.1,22.1
				c0-0.1,0.1-0.3,0.2-0.3c0.1-0.1,0.3-0.1,0.4-0.1l0,0c0.1,0,0.2,0.1,0.3,0.3c0.1,0.1,0,0.3,0,0.4L22.5,23
				c-0.2-0.1-0.3-0.1-0.5-0.1V22.1z M20.4,22c0.1-0.1,0.2-0.2,0.3-0.3l0,0c0.1,0,0.3,0,0.4,0.1c0.1,0.1,0.2,0.2,0.2,0.3v0.7
				c-0.2,0-0.3,0.1-0.5,0.1l-0.4-0.6C20.4,22.2,20.4,22.1,20.4,22z M19.1,22.7L19.1,22.7c0.1-0.1,0.2-0.2,0.4-0.1
				c0.1,0,0.3,0.1,0.3,0.2l0.4,0.6c-0.1,0.1-0.2,0.2-0.3,0.3l-0.6-0.4C19,23.3,19,23.2,18.9,23C18.9,22.9,19,22.8,19.1,22.7z
				 M18.1,24.3L18.1,24.3c0-0.1,0.1-0.3,0.3-0.3c0.1-0.1,0.3,0,0.4,0l0.6,0.4c-0.1,0.2-0.1,0.3-0.1,0.5h-0.7c-0.1,0-0.3-0.1-0.3-0.2
				C18.1,24.6,18.1,24.4,18.1,24.3z M18.8,26.5c-0.1,0.1-0.3,0.1-0.4,0c-0.1-0.1-0.2-0.2-0.3-0.3l0,0c0-0.1,0-0.3,0.1-0.4
				c0.1-0.1,0.2-0.2,0.3-0.2h0.7c0,0.2,0.1,0.3,0.1,0.5L18.8,26.5L18.8,26.5z M19.8,27.8c-0.1,0.1-0.2,0.2-0.3,0.2
				c-0.1,0-0.3,0-0.4-0.1l0,0c-0.1-0.1-0.1-0.2-0.1-0.4c0-0.1,0.1-0.3,0.2-0.3l0.6-0.4c0.1,0.1,0.2,0.2,0.3,0.3L19.8,27.8z M20,25.3
				c0-0.9,0.7-1.6,1.6-1.6c0.9,0,1.6,0.7,1.6,1.6c0,0.9-0.7,1.6-1.6,1.6C20.8,26.9,20,26.2,20,25.3z M21.1,28.7
				c-0.1,0.1-0.2,0.1-0.4,0.1l0,0c-0.1,0-0.2-0.1-0.3-0.3c-0.1-0.1,0-0.3,0-0.4l0.4-0.6c0.2,0.1,0.3,0.1,0.5,0.1v0.7
				C21.3,28.5,21.2,28.7,21.1,28.7z M20.5,31.5c-0.6,0-1.2-0.4-1.3-1H20c0.6,0,1.1,0.4,1.3,1v0.1H20.5z M17.4,36.5
				c1.4-0.7,3-1.2,4.7-1.4c0.4-0.1,0.8-0.1,1.2-0.1c0,0,0.1,0,0.1,0c0.4,0,1.1,0,1.5,0c0.2,0,0.4,0,0.4,0c0.2,0,0.4,0,0.6,0
				c-2.4,0.6-5,1.7-6.5,2.8c-0.2,0.2-0.5,0.4-0.6,0.5c0,0-0.1,0.1-0.1,0.1c-0.8-0.4-1.6-0.8-2.4-1.1C16.5,36.9,16.9,36.7,17.4,36.5z
				"/>
			<path class="st1" d="M12.1,76.4L11.7,77c-0.4-0.1-0.9-0.4-1.3-0.6l0.7-0.9l0.4-0.6c-0.1-0.1-0.5-0.4-0.5-0.4
				c-1.4-1.1-4.2-2.7-6.2-3c0,0,0,0,0,0c-0.3,0-1.3-0.1-1.5-0.1l0,1.1l0,0.4v0.7l0-0.1c0.3,0,0.6,0.1,1,0.1c2.1,0.4,4.1,1.4,5.3,2.8
				c0,0.1,0.2,0.2,0.2,0.2c0.5,0.4,1.2,0.8,1.9,1c-0.2,0.8-0.4,1.2-0.8,1.6c-0.1-0.2-0.3-0.3-0.5-0.5c-0.5-0.4-1.2-0.5-1.7-0.4
				c0,0-1,0-1.5-0.2c-0.6-0.2-1.2-0.7-1.6-1.3c-0.3-0.3-0.5-0.7-0.8-1c-0.4-0.3-0.9-0.5-1.4-0.5V76c0.3,0,0.6,0.1,0.9,0.3
				c0.2,0.1,0.8,0.9,1,1.3c0,0,0.9,0.8,1.4,1C7,78.8,8.2,79.1,8.6,79c0,0,0,0,0,0l0,0c0,0,0.1,0,0.1,0l0,0c0.4,0,0.7,0,1.1,0.2
				c0.1,0,0.3,0.2,0.4,0.4c0,0,0,0,0,0l0.4,0.6c0,0,0.1,0,0.1-0.1c0,0,0,0,0,0l0,0c0,0,0.1-0.1,0.1-0.1c0.1-0.1,0.3-0.2,0.4-0.3
				c0,0,0,0-0.1-0.1c0.6-0.6,0.9-1.2,1.1-2c0,0,0-0.2,0-0.2c0-0.1,0.1-0.5,0.1-0.5c-0.1,0-0.2,0-0.4,0l0.3-0.4l0.3-0.4l0.3-0.4
				l-1.6-0.3L12.1,76.4z M4.3,73.1C4.1,73,3.8,73,3.6,73l0.7-0.9c0.1,0,0.2,0,0.4,0c0.3,0,0.6,0.1,0.9,0.2l-0.7,0.9
				C4.6,73.2,4.5,73.1,4.3,73.1z M5.4,73.4l0.7-0.9c0.5,0.2,1,0.4,1.5,0.6L6.9,74C6.4,73.7,5.9,73.5,5.4,73.4z M7.4,74.2l0.7-0.8
				c0.3,0.2,0.7,0.4,1,0.6l-0.7,0.8C8.1,74.6,7.8,74.4,7.4,74.2z M8.9,75.1l0.7-0.8c0.4,0.3,0.7,0.5,1,0.7l-0.7,0.9
				C9.5,75.7,9.2,75.4,8.9,75.1z"/>
			<path class="st1" d="M10.1,66.6c1.6,0.2,2.9,1.1,3.5,1.7l0.5-0.9c-0.7-0.6-1.7-1.5-3.5-1.7L10.1,66.6z"/>
			<path class="st1" d="M8.2,70c1.6,0.2,2.9,1.2,3.5,1.7l0.5-0.9c-0.7-0.6-1.7-1.5-3.5-1.8L8.2,70z"/>
			<path class="st1" d="M9.1,68.2c1.6,0.2,2.9,1.2,3.5,1.7l0.5-0.9c-0.7-0.6-1.7-1.5-3.5-1.7L9.1,68.2z"/>
			<path class="st1" d="M7.6,66.3c-0.4-0.4-1.2-0.8-2.2-1.2c0,0,0,0,0,0c0.1-0.1,0.4-0.5,0.2-0.6c-0.1-0.1-0.4,0-0.5,0.1
				c0-0.2-0.1-0.4-0.2-0.4c-0.1,0-0.3,0.4-0.3,0.5c0,0,0,0,0,0c-0.5-0.2-1-0.3-1.5-0.4l0,0.6v0.5c1.6,0.2,3.4,1.2,4,1.7L7.6,66.3z"
				/>
			<path class="st1" d="M3.1,67.5c0,0,0.1,0,0.1,0c1.3,0.4,2.4,1.1,2.9,1.5l0.5-0.9c-0.6-0.5-2-1.3-3.4-1.7
				C3.1,66.7,3.1,67.4,3.1,67.5z"/>
			<path class="st1" d="M8.8,64.3c-0.1,0-0.1-0.1-0.2-0.1C8.4,64.1,8.2,64,8,63.9c0.1,0,0.2-0.1,0.3-0.1c0.1-0.1,0.4-0.5,0.2-0.6
				c-0.1-0.1-0.4,0-0.6,0.1c0-0.2-0.1-0.4-0.2-0.4c-0.1,0-0.3,0.4-0.3,0.5c0,0.1,0,0.1,0,0.2c-0.9-0.4-1.9-0.7-2.9-1
				c0.1-0.1,0.1-0.1,0.1-0.2c0-0.1,0.1-0.6,0-0.6c-0.2,0-0.4,0.2-0.5,0.4c-0.1-0.2-0.3-0.4-0.5-0.4c-0.2,0-0.1,0.5,0,0.6
				c0,0,0,0,0,0.1c-0.2,0-0.4-0.1-0.7-0.1v1c1.9,0.3,3.7,1,5.1,1.8L8.8,64.3z"/>
			<path class="st1" d="M10,80.3c-0.2-0.2-0.3-0.4-0.6-0.6c-0.5-0.4-1.2-0.5-1.7-0.4c0,0-1,0-1.5-0.2c-0.6-0.2-1.2-0.7-1.6-1.3
				c-0.3-0.3-0.5-0.7-0.8-1c-0.2-0.2-0.4-0.3-0.6-0.4v0.7c0.1,0,0.1,0.1,0.2,0.1c0.2,0.1,0.8,0.9,1,1.3c0,0,0.9,0.8,1.4,1
				C6.3,79.8,7.5,80,7.8,80c0,0,0,0,0,0l0,0c0,0,0.1,0,0.1,0l0,0c0.4,0,0.7,0,1.1,0.2c0.1,0,0.3,0.2,0.4,0.4c0,0,0,0,0,0l0.4,0.6
				c0,0,0.1,0,0.1-0.1c0.2-0.1,0.4-0.2,0.5-0.4c0,0-0.1-0.1-0.1-0.1C10.3,80.5,10.2,80.4,10,80.3z"/>
			<path class="st1" d="M16.1,53.2c0-0.3-0.2-0.5-0.5-0.5c-0.3,0-0.5,0.2-0.5,0.5s0.2,0.5,0.5,0.5C15.9,53.6,16.1,53.4,16.1,53.2z"
				/>
			<circle class="st1" cx="14.3" cy="52.6" r="0.5"/>
			
				<rect x="20.8" y="51.7" transform="matrix(0.4786 -0.878 0.878 0.4786 -34.1626 46.5229)" class="st1" width="2.7" height="0.7"/>
			
				<rect x="22.2" y="52.5" transform="matrix(0.4786 -0.878 0.878 0.4786 -34.1002 48.2159)" class="st1" width="2.7" height="0.7"/>
			
				<rect x="23.7" y="53.3" transform="matrix(0.4786 -0.878 0.878 0.4786 -34.0378 49.9107)" class="st1" width="2.7" height="0.7"/>
			<path class="st1" d="M32,59.3c-0.3-0.1-0.7-0.1-1.1-0.1c-0.7,0.1-1.3,0.3-1.9,0.5c-0.4,0.1-0.8,0.3-1.3,0.4
				c-0.4,0.1-0.8,0.2-1.2,0.2c-0.1,0-0.2,0-0.3,0c0,0-0.1,0-0.1,0c0,0,0,0-0.1,0c0,0,0,0,0,0c-0.2,0-0.4-0.1-0.6-0.1
				c-0.4-0.1-0.7-0.2-1.1-0.4c-0.4-0.2-0.7-0.4-1-0.7c-0.3-0.2-0.7-0.5-1.1-0.7c-0.4-0.2-0.9-0.3-1.3-0.3c-0.5,0-0.9,0.1-1.4,0.2
				c-0.4,0.1-0.7,0.2-1.1,0.3c-0.2,0-0.3,0.1-0.5,0.1c-0.1,0-0.1,0-0.2,0c0,0-0.1,0-0.1,0c0,0,0,0,0,0c0,0,0,0,0,0
				c-0.3,0-0.6,0-0.9,0c-0.1,0-0.3,0-0.4,0c0,0,0,0,0,0c0,0,0,0,0,0c0,0-0.1,0-0.1,0c-0.1,0-0.2,0-0.2,0c-0.3-0.1-0.6-0.2-0.9-0.3
				c0,0-0.1,0-0.1,0c0,0-0.1,0-0.1-0.1c-0.1,0-0.2-0.1-0.3-0.1c-0.2-0.1-0.4-0.2-0.5-0.3c-0.1-0.1-0.2-0.1-0.4-0.2c0,0,0,0,0,0
				c0,0,0,0,0,0c-0.1,0-0.1-0.1-0.2-0.1c-1.5-1.2-3.2-2.1-5-2.7C7,54.2,5.5,54,4,53.9c-0.3,0-0.6,0-0.9,0v0.9c0.2,0,0.4,0,0.6,0
				c0.3,0,0.6,0,0.9,0.1c0.2,0,0.3,0,0.5,0.1c0,0,0.1,0,0.1,0c-0.1,0,0,0,0,0c0.1,0,0.2,0,0.3,0c0.8,0.1,1.5,0.3,2.2,0.5
				c0.4,0.1,0.8,0.3,1.2,0.4c0.1,0,0.2,0.1,0.3,0.1c0,0,0.1,0,0.1,0c0,0,0,0,0,0c0,0,0.1,0,0.1,0c0.2,0.1,0.4,0.2,0.6,0.3
				c0.5,0.2,0.9,0.5,1.4,0.8c0.5,0.3,0.9,0.6,1.3,1c0,0,0,0,0,0c0,0,0,0,0,0c-0.3,0.3-0.7,0.6-0.9,0.9c-0.4-0.2-0.7-0.4-1.1-0.6
				c0.1,0,0.2,0,0.3-0.1c0.1-0.1,0.4-0.5,0.2-0.6c-0.1-0.1-0.4,0-0.6,0.1c0-0.2-0.1-0.4-0.2-0.4c-0.1,0-0.3,0.4-0.3,0.5
				c0,0.1,0,0.2,0,0.2c-1-0.4-2-0.7-3.1-1c0,0,0.1-0.1,0.1-0.1c0.1-0.1,0.3-0.5,0.1-0.6c-0.1-0.1-0.4,0.1-0.5,0.2
				c-0.1-0.2-0.2-0.4-0.3-0.4c-0.2,0-0.2,0.4-0.2,0.6c0,0.1,0,0.1,0,0.2c-0.7-0.1-1.4-0.2-2.1-0.3c0,0,0.1-0.1,0.1-0.2
				c0-0.1,0.1-0.6,0-0.6c-0.2,0-0.4,0.2-0.5,0.4C4,56.3,3.8,56,3.6,56.1c-0.2,0-0.1,0.5,0,0.6c0,0,0,0.1,0,0.1c0,0-0.1,0-0.1,0
				c-0.1,0-0.3,0-0.4,0l0,1.2l0.1,0c0.1,0,0.2,0,0.3,0c2.8,0.1,5.4,0.8,7.6,1.9c-0.3,0.4-0.5,0.7-0.7,1.1c-0.4-0.2-0.8-0.4-1.2-0.5
				c0,0,0.1-0.1,0.1-0.1c0.1-0.1,0.4-0.5,0.2-0.6c-0.1-0.1-0.4,0-0.6,0.1c0-0.2-0.1-0.4-0.2-0.4c-0.1,0-0.3,0.4-0.3,0.5
				c0,0,0,0.1,0,0.1c-0.6-0.2-1.3-0.4-2-0.6c0,0,0,0,0,0c0.1-0.1,0.3-0.5,0.1-0.6c-0.1-0.1-0.4,0.1-0.5,0.2
				c-0.1-0.2-0.2-0.4-0.3-0.4c-0.2,0-0.2,0.4-0.2,0.6c0,0,0,0,0,0c-0.5-0.1-0.9-0.1-1.4-0.2c0,0,0-0.1,0.1-0.1c0-0.1,0.1-0.6,0-0.6
				c-0.2,0-0.4,0.2-0.5,0.4c-0.1-0.2-0.3-0.4-0.5-0.4c-0.2,0-0.1,0.5,0,0.6c0,0,0,0.1,0,0.1c-0.1,0-0.3,0-0.4,0l0,1.1
				c0.1,0,0.3,0,0.4,0c4,0.1,7.7,1.8,9.8,4.2c-1.2-0.5-2.7-1.1-2.8-1.1l-0.4-0.1l0,0l-3.9,6.9c-0.7-0.5-1.6-1.1-3-1.4c0,0,0,0,0,0.1
				v0.5c0,0.1,0,0.2,0,0.3c1.2,0.3,2.1,0.7,2.8,1.5l0,0l0,0c0,0,0,0,0,0l0,0l0.5,0.2c0,0,2.1,0.8,2.7,1.2c0.6,0.3,2.3,1.5,2.4,1.5
				l0.4,0.3l4.2-7.9l-0.3-0.3c0,0,0,0-0.3-0.3l-0.1-0.2c-0.5-1.1-1.3-2.1-2.3-3c0.4-0.6,0.9-1.2,1.5-1.8l0-1.3
				c-1,0.8-1.7,1.5-2.4,2.4c-0.3-0.2-0.5-0.4-0.8-0.5c0,0,0.1-0.1,0.1-0.1c0.1-0.2,0.4-0.8,0.5-1c0.2-0.3,0.5-0.6,0.8-0.9
				c0.3-0.3,0.6-0.6,1-0.9c1,0.5,2,0.8,3.1,0.8c0.6,0,1.2-0.1,1.8-0.3c0.4-0.1,0.8-0.2,1.2-0.3c0,0,0.1,0,0.1,0c0,0,0,0,0,0
				c0,0,0.1,0,0.1,0c0.1,0,0.2,0,0.3,0c0.2,0,0.4,0,0.6,0.1c0.8,0.2,1.4,0.8,2.1,1.2c0.7,0.4,1.5,0.8,2.4,0.9
				c0.4,0.1,0.9,0.1,1.3,0.1c0.5,0,0.9-0.2,1.3-0.3c0.4-0.1,0.8-0.2,1.1-0.3c0.3-0.1,0.6-0.2,0.9-0.3c0.2,0,0.3-0.1,0.5-0.1
				c0,0,0,0,0,0c0,0,0,0,0,0c0,0,0,0,0.1,0c0,0,0.1,0,0.1,0c0.1,0,0.2,0,0.3,0c0,0,0.1,0,0.1,0c0,0,0,0,0,0c0,0,0,0,0,0
				c0.1,0,0.2,0,0.2,0.1c0,0,0,0,0,0c0,0,0,0,0,0c0,0,0.1,0,0.1,0.1c0.1,0,0.1,0.1,0.2,0.1c0,0,0.1,0.1,0.1,0.1c0.5,0,1,0,1.5-0.1
				c-0.3-0.2-0.6-0.4-0.8-0.5C32.5,59.6,32.3,59.4,32,59.3z M10.7,58.3C10.7,58.3,10.7,58.3,10.7,58.3
				C10.7,58.4,10.7,58.4,10.7,58.3C10.7,58.4,10.7,58.4,10.7,58.3z M14,65.7c0.5,0.3,1,0.7,1.2,0.9l-3.5,6.7
				c-0.6-0.4-1.8-1.2-2.3-1.5c-0.5-0.3-2-0.9-2.7-1.1l3.7-6.6c0.5,0.2,1.7,0.6,2.5,1C13.3,65.2,13.7,65.5,14,65.7z"/>
			<path class="st1" d="M38.6,58.3c-0.3,0.1-0.6,0.2-0.9,0.2c-0.2,0.1-0.4,0.1-0.6,0.1c0,0,0,0,0,0c0,0,0,0-0.1,0
				c-0.1,0-0.1,0-0.2,0c-0.1,0-0.2,0-0.3,0c0.1,0-0.1,0-0.1,0c-0.1,0-0.1,0-0.2,0c-0.2,0-0.3-0.1-0.5-0.1c-0.3-0.1-0.6-0.2-0.8-0.3
				c-0.1-0.1-0.3-0.1-0.4-0.2c0,0-0.1,0-0.1,0c0,0,0,0,0,0c0,0,0,0,0,0c-0.1,0-0.1-0.1-0.2-0.1c-0.1-0.1-0.3-0.1-0.4-0.2l0.5-7.9
				c-0.2,0.1-0.5,0.1-0.7,0.1c0,0-0.1,0-0.1,0l-0.2,3.6l-0.7-0.2l0.9-3.5c-0.3,0-0.6-0.1-0.8-0.2l-0.9,3.5L30.9,53l1.5-3.3
				c-0.4-0.2-0.6-0.4-0.7-0.5l-3.9,8.4c-0.1,0.2-0.1,0.3-0.2,0.4c0,0,0,0,0,0c-0.1,0-0.2,0-0.3,0c-0.2,0-0.3,0-0.5,0
				c-0.1,0-0.1,0-0.2,0c-0.1,0-0.2,0-0.3,0c-0.4-0.1-0.7-0.2-1.1-0.3c0,0,0,0,0,0c0,0,0,0,0,0c0,0-0.1,0-0.1,0
				c-0.1,0-0.2-0.1-0.3-0.1c-0.2-0.1-0.3-0.2-0.5-0.3c-0.3-0.2-0.6-0.4-0.9-0.6c-0.7-0.5-1.4-0.8-2.2-0.8c-0.8,0-1.5,0.3-2.2,0.4
				c-0.3,0.1-0.5,0.1-0.8,0.2c-0.1,0-0.1,0-0.2,0c0,0,0,0,0,0c0,0,0,0,0,0c0,0-0.1,0-0.1,0c-0.1,0-0.3,0-0.4,0c-0.3,0-0.6,0-0.8,0
				c0,0,0,0,0,0c0,0,0,0,0,0c0,0-0.1,0-0.1,0c0,0,0,0,0,0c1-1.2,1.6-2.6,1.7-4c0,0,0-0.3,0-0.3c0-0.1,0-0.3,0-0.4h0v-0.3
				c-0.2,0-0.5,0-0.8,0c-0.4,0-1-0.2-1.5-0.4l11.4-6.2l-1,1.8c-0.1,0.2,0,0.4,0.1,0.5c0,0,0,0,0,0l0.1,0.1c0.4,0.2,0.6,0.7,0.3,1.1
				c-0.2,0.4-0.7,0.6-1.1,0.3c-0.4-0.2-0.6-0.7-0.3-1.1l-0.6-0.3c-0.2,0.4-0.2,0.9-0.1,1.3l-3.2,0.5l-0.2-0.1
				c-0.2-0.1-0.4,0-0.5,0.1c0,0,0,0,0,0L19,53c-0.1,0.2,0,0.4,0.1,0.5c0,0,0,0,0,0l6.3,3.4c0.2,0.1,0.4,0,0.5-0.1c0,0,0,0,0,0
				l2.2-4.1c0.1-0.2,0-0.4-0.1-0.5c0,0,0,0,0,0l-0.5-0.3l-0.9-2.6c0.8,0,1.5-0.7,1.4-1.5c0-0.5-0.3-0.9-0.6-1.2l1.4-2.5l0,0
				l-0.4-1.4l-14.6,5.2l0,0l0.5-1c-0.2-0.1-0.3-0.1-0.3-0.1c-0.2-0.2-0.4-0.3-0.6-0.4c-0.6-0.4-1.3-0.8-2-1.1l0.6-1l0.5-0.9l0.6-1
				l-3.6-0.2l2,1.8l-0.7,1.2C9,44.2,7,43.8,5,43.8c0,0,0,0,0,0c-0.4,0-0.8,0-1.2,0l-0.6,1.1l0,0v2.6c0.7,0,1.4,0,2.2,0
				c3.3,0.3,6.4,1.5,8.5,3.4c0.1,0.1,0.4,0.3,0.4,0.3c0.8,0.6,1.9,1,3.1,1.1c-0.2,1.9-0.7,2.6-1.8,3.7C15.4,56,15.2,56,15,55.9
				c-0.4-0.2-0.8-0.4-1.1-0.6c-1.5-1.2-3.2-2.1-5-2.7c-1.4-0.5-2.9-0.7-4.4-0.8c-0.5,0-1,0-1.4,0v0.9c0.4,0,0.8,0,1.2,0
				c0.3,0,0.6,0,0.9,0.1c0.2,0,0.3,0,0.5,0.1c0,0,0.1,0,0.1,0c-0.1,0,0,0,0,0c0.1,0,0.2,0,0.3,0c0.8,0.1,1.5,0.3,2.2,0.5
				c0.4,0.1,0.8,0.3,1.2,0.4c0.1,0,0.2,0.1,0.3,0.1c0,0,0.1,0,0.1,0c0,0,0,0,0,0c0,0,0.1,0,0.1,0c0.2,0.1,0.4,0.2,0.6,0.3
				c0.5,0.2,0.9,0.5,1.4,0.8c0.5,0.3,0.9,0.6,1.3,1c0,0,0,0,0,0c0,0,0,0,0.1,0.1c1.1,0.7,2.3,1.3,3.6,1.4c0.5,0,1.1,0,1.6-0.1
				c0.3-0.1,0.6-0.1,0.8-0.2c0.4-0.1,0.8-0.2,1.1-0.3c0.7-0.1,1.4,0,1.9,0.4c0.3,0.2,0.6,0.4,0.9,0.6c0.3,0.2,0.6,0.4,1,0.6
				c0.7,0.3,1.4,0.6,2.2,0.6c0.7,0.1,1.3-0.1,1.9-0.2c0.1,0,0.3-0.1,0.4-0.1c0.3-0.1,0.7-0.2,1-0.3c0.1,0,0.1,0,0.2-0.1
				c0,0,0.1,0,0.1,0c0.2,0,0.3-0.1,0.5-0.1c0.1,0,0.1,0,0.2,0c0,0,0,0,0.1,0c0,0,0.1,0,0.1,0c0,0,0.1,0,0.1,0c0.1,0,0.3,0,0.4,0
				c0.1,0,0.2,0,0.3,0c0,0,0,0,0.1,0c0.1,0,0.1,0,0.2,0c0.2,0,0.4,0.1,0.7,0.2c0,0,0,0,0.1,0c0.1,0.1,0.3,0.1,0.4,0.2
				c0.1,0,0.1,0.1,0.2,0.1c0,0,0.1,0,0.1,0c0,0,0.1,0,0.1,0c0,0,0,0,0,0c0.3,0.1,0.5,0.2,0.8,0.3c0.5,0.2,1.1,0.4,1.7,0.5
				c0.5,0.1,1,0.1,1.4,0c0.2-0.1,0.5-0.1,0.7-0.2c0.1,0,0.3-0.1,0.4-0.1c0.1,0,0.1,0,0.2,0c0,0,0.1,0,0.1,0c0.1,0,0.1,0,0.2,0
				c0,0,0,0,0.1,0c0,0,0.1,0,0.1,0c0.1,0,0.3,0.1,0.4,0.1c0.4-0.1,0.7-0.2,1.1-0.3c-0.4-0.4-0.9-0.6-1.4-0.7
				C39.1,58.2,38.8,58.2,38.6,58.3z M25.6,49.1l0.9,2.3l-3.6-1.9L25.6,49.1z M27.3,52.6l-1.9,3.5L19.7,53l1.9-3.5L27.3,52.6z
				 M27.2,44l-4.3,2.3l-1.3-0.4L27.2,44z M20.5,46.5l1.3,0.4l-1.7,0.9L20.5,46.5z M19.6,46.7l-0.5,1.5l-1.9-0.6L19.6,46.7z
				 M12.2,48.4l-0.1,0c-2-1.1-4.4-1.8-6.6-2c-0.7,0-1.3-0.1-1.9,0l0.9-1.6c0.2,0,0.4,0,0.5,0c3,0,5.8,0.9,8,2.3L12.2,48.4z
				 M14.8,50.2c-0.3-0.2-0.5-0.3-0.5-0.3c-0.4-0.3-0.8-0.6-1.3-0.9l0-0.1l2.4-0.8L14.8,50.2z M16.4,48.1l2,0.7l-2.7,1.5L16.4,48.1z
				 M30.6,57.3c-0.4,0.1-0.7,0.2-1,0.3c-0.3,0.1-0.6,0.2-0.9,0.3l1.8-4l0.9,0.2L30.6,57.3z M32.9,57.4c-0.5-0.2-1-0.2-1.5-0.2l0.8-3
				l0.9,0.2L32.9,57.4z"/>
		</g>
		<g>
			<path class="st1" d="M47.2,36.9C47.2,36.9,47.2,36.8,47.2,36.9c-0.1-0.3-0.2-0.5-0.3-0.7C47,36.1,47,36,47,35.9
				c0-0.1-0.1-0.2-0.3-0.3c0,0-0.1,0-0.1-0.1c0-0.1,0-0.1-0.1-0.2c-0.2-0.2-0.4-0.4-0.5-0.6c-0.1-0.1-0.2-0.1-0.3,0
				c-0.1,0-0.1,0.1-0.1,0.2c0,0.1,0,0.2,0.1,0.2l0.1,0.1c0.1,0.1,0.2,0.2,0.4,0.4c0,0,0,0,0,0.1c-0.1,0.1-0.1,0.1-0.1,0.2
				c0,0.1,0,0.2,0.1,0.3c0.1,0.1,0.2,0.1,0.2,0.1c0.1,0.2,0.2,0.4,0.3,0.6c0,0,0.1,0.1,0.1,0.1c0.1,0,0.2,0,0.2,0l0.2,0L47.2,36.9z"
				/>
			<path class="st1" d="M45.5,39c0.1,0.1,0.3,0.2,0.4,0.3c0-0.1,0-0.1,0-0.2c0.1-0.4,0.3-0.8,0.6-1.2c0,0,0,0,0-0.1c0,0,0.1,0,0.1,0
				l1.8,0.1c0,0,0.1,0,0.1,0c0,0,0,0,0,0.1c0.2,0.4,0.4,0.8,0.5,1.2c0,0.2,0,0.5,0,0.7l0,0.2c0.3,0,0.5-0.1,0.8-0.1l0-0.1
				c0-0.3,0-0.6,0-0.8c-0.1-0.5-0.3-1.1-0.6-1.5c-0.1-0.1-0.2-0.2-0.3-0.3c-0.2-0.1-0.3-0.1-0.5-0.1l-1.8-0.1c-0.1,0-0.3,0-0.5,0.1
				c-0.1,0.1-0.2,0.2-0.3,0.3c-0.3,0.4-0.6,0.9-0.7,1.4c0,0,0,0,0,0C45.4,39,45.4,39,45.5,39z"/>
		</g>
	</g>
</g>
</svg>
